<?xml version="1.0" encoding="UTF-8"?>
<svg id="Layer_1" data-name="Layer 1" xmlns="http://www.w3.org/2000/svg" viewBox="0 0 512 512">
  <defs>
    <style>
      .cls-1 {
        fill: #f19021;
      }

      .cls-2 {
        fill: #fff;
      }
    </style>
  </defs>
  <circle class="cls-1" cx="256" cy="256" r="256"/>
  <g>
    <path class="cls-2" d="M272.6,194.25c-39.4,2.4-21.7,53.8,21.9,51.1,42.6-2.6,20.1-53.7-21.9-51.1Z"/>
    <path class="cls-2" d="M256,162.55c-70.1,0-127,56.9-127,127s56.9,127,127,127,127-56.9,127-127h0c0-70.1-56.9-127-127-127h0ZM256,403.25c-62.8,0-113.7-50.9-113.7-113.6s50.9-113.7,113.6-113.7,113.7,50.9,113.7,113.6h0c0,62.8-50.9,113.7-113.6,113.7h0ZM252.2,73.95c-30.2,22.8-24.9,57.7-24.9,57.7,0,0-19-49.2-43.6-79.3-3.3,38.7,8.8,90,8.8,90,0,0-15.4-31.8-53.2-33.6,31.3,18,43.5,50.4,46.2,59.1,18.7-11.5,40-18,61.9-18.7-2.5-8.1-11.2-42.2,4.7-75.3l.1.1Z"/>
    <path class="cls-2" d="M169.9,302.05v26.6h-11v-68.5h23.3c7.9,0,13.8,1.9,17.8,5.6s6,8.9,6,15.4-2,11.6-6.1,15.3c-4.1,3.7-10,5.6-17.7,5.6h-12.3ZM194.6,281.15c0-3.9-1.1-6.8-3.2-8.9-2.2-2-5.6-3.1-10.4-3.1h-11.1v23.8h11.1c9.1,0,13.7-3.9,13.7-11.8h-.1ZM224.9,319.95h23.7v8.6h-34.7v-68.5h11.1v59.9h-.1ZM299.2,313.75h-28.9l-5.2,14.8h-11.8l25.2-67.4h12.7l25.1,67.4h-11.8l-5.2-14.8h-.1ZM296.1,305.25l-11.3-32-11.3,32h22.7-.1ZM360.6,260.15l-22.8,43.6v24.9h-11.1v-24.9l-22.9-43.6h12.8l15.7,31.7,15.7-31.7h12.6,0Z"/>
  </g>
</svg>