<svg viewBox="0 0 32 32" fill="none" xmlns="http://www.w3.org/2000/svg">
<g clip-path="url(#clip0_30682_135555)">
<path d="M29.8 6.1999L26.8 2.2999C26.5 1.9999 26 1.8999 25.6 2.0999L24.4 2.6999C21.5 4.0999 18.3 4.3999 15.2 3.4999C13.9 3.0999 12.5 2.9999 11.2 2.9999H5C4.4 2.9999 4 3.3999 4 3.9999V15.5999C4 16.1999 4.4 16.5999 5 16.5999H9C9.6 16.5999 10 16.1999 10 15.5999C10 13.9999 11.3 12.6999 13 12.6999H15.9L14.4 14.4999C10.9 18.6999 8.4 23.4999 7 28.7999C7 28.9999 7 29.3999 7.2 29.5999C7.4 29.7999 7.7 29.9999 8 29.9999H21C21.6 29.9999 22 29.5999 22 28.9999C22 23.4999 23.5 18.0999 26.3 13.2999L29.8 7.2999C30.1 6.9999 30 6.5999 29.8 6.1999Z" fill="#FABE00"/>
</g>
<defs>
<clipPath id="clip0_30682_135555">
<rect width="32" height="32" rx="8" fill="white"/>
</clipPath>
</defs>
</svg>
