<svg viewBox="0 0 80 32" fill="none" xmlns="http://www.w3.org/2000/svg">
<path d="M21.5908 7.16361C22.3129 6.31198 22.8028 5.1685 22.6736 4C21.6166 4.04956 20.3268 4.65756 19.5801 5.50985C18.9096 6.23971 18.3161 7.43107 18.4708 8.55058C19.6573 8.64763 20.8427 7.99133 21.5908 7.16361Z" fill="white"/>
<path d="M22.6601 8.76918C20.9371 8.67239 19.472 9.69135 18.6492 9.69135C17.8258 9.69135 16.5658 8.81795 15.2029 8.84149C13.4291 8.86606 11.7831 9.81183 10.883 11.316C9.03149 14.3252 10.3944 18.7889 12.1948 21.2397C13.0692 22.4522 14.1229 23.7872 15.5113 23.7392C16.8232 23.6907 17.3374 22.9382 18.932 22.9382C20.5254 22.9382 20.9886 23.7392 22.3773 23.715C23.8174 23.6907 24.7177 22.5019 25.592 21.2882C26.5951 19.906 27.0057 18.5714 27.0315 18.4982C27.0057 18.4739 24.2546 17.4787 24.2291 14.4945C24.2031 11.9959 26.389 10.8073 26.4919 10.7336C25.2575 9.01207 23.3288 8.81795 22.6601 8.76918Z" fill="white"/>
<path d="M37.3343 5.38794C41.0794 5.38794 43.6873 7.82228 43.6873 11.3665C43.6873 14.9234 41.0258 17.3703 37.2404 17.3703H33.0939V23.5885H30.098V5.38794H37.3343V5.38794ZM33.0939 14.999H36.5314C39.1398 14.999 40.6243 13.6748 40.6243 11.3791C40.6243 9.08372 39.1398 7.77192 36.5449 7.77192H33.0939V14.999Z" fill="white"/>
<path d="M44.4709 19.8172C44.4709 17.4962 46.3569 16.071 49.7011 15.8944L53.553 15.6801V14.6585C53.553 13.1827 52.4962 12.2998 50.731 12.2998C49.0587 12.2998 48.0153 13.0565 47.7614 14.2422H45.0329C45.1933 11.8456 47.36 10.0798 50.8378 10.0798C54.2485 10.0798 56.4286 11.7826 56.4286 14.4439V23.5884H53.6598V21.4063H53.5932C52.7774 22.8821 50.9983 23.8154 49.1526 23.8154C46.3972 23.8154 44.4709 22.2009 44.4709 19.8172ZM53.553 18.619V17.5721L50.0886 17.7738C48.3631 17.8874 47.3868 18.6063 47.3868 19.7415C47.3868 20.9018 48.4033 21.6586 49.9549 21.6586C51.9745 21.6586 53.553 20.3468 53.553 18.619Z" fill="white"/>
<path d="M59.0424 28.4686V26.2612C59.256 26.3116 59.7374 26.3116 59.9784 26.3116C61.3158 26.3116 62.0382 25.782 62.4794 24.4198C62.4794 24.3945 62.7338 23.6126 62.7338 23.5999L57.6512 10.3184H60.7808L64.3391 21.1152H64.3922L67.9505 10.3184H71L65.7297 24.2809C64.5264 27.4974 63.1352 28.5316 60.2194 28.5316C59.9784 28.5316 59.256 28.5063 59.0424 28.4686Z" fill="white"/>
</svg>
