<svg xmlns="http://www.w3.org/2000/svg" fill="none" viewBox="0 0 55 18"><path fill="#00B004" d="M9.923 3.192c.347.362.81.542 1.385.542.586 0 1.05-.18 1.385-.542.345-.372.517-.814.517-1.325 0-.51-.172-.947-.517-1.308C12.358.185 11.894 0 11.308 0c-.587 0-1.055.186-1.401.56-.334.36-.501.796-.501 1.307 0 .511.172.953.517 1.325ZM34.892 14.125v.035h9.248V11.212h-4.485c1.476-1.041 2.54-2.107 3.193-3.2.665-1.113.998-2.222.999-3.325.011-.778-.155-1.47-.502-2.074A3.674 3.674 0 0 0 41.84 1.16c-.656-.352-1.44-.527-2.352-.527-.79 0-1.523.144-2.202.432a4.98 4.98 0 0 0-1.74 1.167 4.459 4.459 0 0 0-1.057 1.714l-.01.028.026.014 2.556 1.44.038.02.013-.04c.145-.43.381-.793.708-1.088.336-.305.739-.458 1.209-.458.41 0 .712.106.912.312.2.206.303.518.303.942 0 .54-.2 1.176-.603 1.908-.403.732-1 1.496-1.796 2.291-.783.796-1.762 1.58-2.937 2.35l-.017.011v2.449ZM49.77 14.128v.036h3.42V11.35H54.99V8.634H53.19V.918h-2.483l-.01.013L44.43 8.87l-.008.01v2.471h5.348v2.777Zm0-8.06v2.566h-2.034L49.77 6.07Z"/><path fill="#fff" d="M4.882 14.196c-1 0-1.869-.19-2.603-.57a4.162 4.162 0 0 1-1.682-1.658C.199 11.257 0 10.422 0 9.465c0-.994.217-1.872.651-2.633a4.68 4.68 0 0 1 1.79-1.785c.771-.43 1.657-.645 2.658-.645.88 0 1.645.172 2.296.516a3.4 3.4 0 0 1 1.482 1.528L6.527 8.25c-.229-.59-.675-.884-1.338-.884-.519 0-.934.19-1.248.57-.313.369-.47.86-.47 1.473 0 .577.14 1.025.416 1.344.278.32.675.479 1.194.479.663 0 1.163-.313 1.5-.939l2.26 1.896a3.697 3.697 0 0 1-1.573 1.51c-.675.331-1.47.497-2.386.497ZM13.034 4.543v9.582H9.723V4.543h3.311ZM19.617 14.2c-1.221 0-2.179-.337-2.873-1.011-.694-.686-1.035-1.58-1.023-2.682l.053-3.141h-1.471v-2.81h1.525l.037-1.911h3.303l-.036 1.91h2.765v2.81h-2.8l-.037 2.738c-.012.38.083.673.287.882.216.196.509.293.88.293.252 0 .502-.03.754-.091.252-.074.509-.202.772-.386l.934 2.572c-.3.257-.713.459-1.239.606-.527.147-1.137.22-1.831.22ZM26.807 18c-.387 0-.81-.031-1.269-.093a7.6 7.6 0 0 1-1.306-.26 3.865 3.865 0 0 1-1.034-.465l.798-2.937c.46.236.925.416 1.397.54a5.942 5.942 0 0 0 1.614.204c.955 0 1.638-.21 2.049-.632.411-.421.653-1.078.726-1.97l.035-.465a4.295 4.295 0 0 1-1.36 1.413c-.543.347-1.166.52-1.868.52-1.172 0-2.037-.396-2.593-1.19-.556-.792-.828-1.89-.816-3.29l.018-4.832h3.374l-.019 4.61c0 .495.091.867.272 1.115.194.248.46.372.799.372.422 0 .78-.18 1.069-.54.303-.371.538-.997.707-1.877.182-.892.284-2.119.309-3.68h3.264v7.472c0 1.388-.26 2.522-.78 3.402a4.641 4.641 0 0 1-2.158 1.951c-.919.421-1.994.632-3.228.632Z"/></svg>