<svg viewBox="0 0 120 24" fill="none" xmlns="http://www.w3.org/2000/svg">
<rect width="43.0061" height="24.0046" transform="translate(6.5 -0.00146484)" fill="#767676"/>
<path d="M13.1861 7.14712H16.1066C17.1151 7.14712 17.9556 7.5008 18.6279 8.20816C19.3073 8.90851 19.6469 9.78046 19.6469 10.824C19.6469 11.8675 19.3073 12.7395 18.6279 13.4398C17.9556 14.1472 17.1151 14.5009 16.1066 14.5009H13.1861V7.14712ZM14.6359 13.1141H16.1066C16.744 13.1141 17.2622 12.904 17.6614 12.4838C18.0606 12.0496 18.2602 11.4963 18.2602 10.824C18.2602 10.1446 18.0606 9.59486 17.6614 9.17465C17.2622 8.74743 16.744 8.53382 16.1066 8.53382H14.6359V13.1141ZM26.3797 7.14712H27.8715V14.5009H26.4322V9.73143L24.3627 13.1457H24.1946L22.125 9.74194V14.5009H20.6753V7.14712H22.1671L24.2786 10.6244L26.3797 7.14712ZM32.7294 14.6479C31.6299 14.6479 30.7159 14.2802 29.9875 13.5449C29.2662 12.8165 28.9055 11.9095 28.9055 10.824C28.9055 9.73143 29.2662 8.82447 29.9875 8.1031C30.7159 7.36773 31.6299 7.00004 32.7294 7.00004C33.3948 7.00004 34.0076 7.15762 34.5679 7.47278C35.1352 7.78094 35.5764 8.20115 35.8915 8.73342L34.6414 9.45829C34.4593 9.12912 34.2002 8.87349 33.864 8.6914C33.5278 8.50231 33.1497 8.40776 32.7294 8.40776C32.0151 8.40776 31.4373 8.63187 30.9961 9.0801C30.5618 9.53533 30.3447 10.1166 30.3447 10.824C30.3447 11.5243 30.5618 12.1021 30.9961 12.5574C31.4373 13.0056 32.0151 13.2297 32.7294 13.2297C33.1497 13.2297 33.5278 13.1387 33.864 12.9566C34.2072 12.7675 34.4663 12.5118 34.6414 12.1897L35.8915 12.9145C35.5764 13.4468 35.1352 13.8705 34.5679 14.1857C34.0076 14.4939 33.3948 14.6479 32.7294 14.6479ZM43.0545 14.5009H41.4787L41.0375 13.1772H38.1065L37.6653 14.5009H36.1L38.6738 7.14712H40.4702L43.0545 14.5009ZM39.5773 8.81747L38.5688 11.822H40.5858L39.5773 8.81747Z" fill="white"/>
<path d="M55.189 7.14712H57.9308C58.6312 7.14712 59.2265 7.38524 59.7168 7.86148C60.2 8.33772 60.4416 8.92252 60.4416 9.61587C60.4416 10.3092 60.2 10.894 59.7168 11.3703C59.2265 11.8465 58.6312 12.0846 57.9308 12.0846H56.6387V14.5009H55.189V7.14712ZM56.6387 10.7294H57.9308C58.239 10.7294 58.4946 10.6244 58.6977 10.4143C58.9008 10.1972 59.0024 9.93103 59.0024 9.61587C59.0024 9.29371 58.9008 9.02757 58.6977 8.81747C58.4946 8.60736 58.239 8.50231 57.9308 8.50231H56.6387V10.7294ZM66.9848 14.5009H65.4195L63.9383 11.9481H62.8352V14.5009H61.3855V7.14712H64.327C65.0063 7.14712 65.5841 7.38524 66.0603 7.86148C66.5366 8.33772 66.7747 8.91201 66.7747 9.58436C66.7747 10.0396 66.6451 10.4633 66.386 10.8555C66.1269 11.2407 65.7837 11.5313 65.3565 11.7274L66.9848 14.5009ZM64.327 8.50231H62.8352V10.6769H64.327C64.6001 10.6769 64.8347 10.5719 65.0308 10.3618C65.2269 10.1446 65.325 9.88551 65.325 9.58436C65.325 9.2832 65.2269 9.02757 65.0308 8.81747C64.8347 8.60736 64.6001 8.50231 64.327 8.50231ZM73.944 13.5449C73.2016 14.2802 72.2982 14.6479 71.2336 14.6479C70.1691 14.6479 69.2656 14.2802 68.5233 13.5449C67.7879 12.7955 67.4202 11.8885 67.4202 10.824C67.4202 9.75244 67.7879 8.84898 68.5233 8.11361C69.2656 7.37123 70.1691 7.00004 71.2336 7.00004C72.2982 7.00004 73.2016 7.37123 73.944 8.11361C74.6864 8.84898 75.0576 9.75244 75.0576 10.824C75.0576 11.8955 74.6864 12.8025 73.944 13.5449ZM69.5423 12.5574C69.9905 13.0056 70.5543 13.2297 71.2336 13.2297C71.913 13.2297 72.4768 13.0056 72.925 12.5574C73.3802 12.1021 73.6078 11.5243 73.6078 10.824C73.6078 10.1236 73.3802 9.54584 72.925 9.0906C72.4698 8.63537 71.906 8.40776 71.2336 8.40776C70.5613 8.40776 69.9975 8.63537 69.5423 9.0906C69.087 9.54584 68.8594 10.1236 68.8594 10.824C68.8594 11.5243 69.087 12.1021 69.5423 12.5574ZM75.1096 7.14712H80.5199V8.53382H78.5344V14.5009H77.0846V8.53382H75.1096V7.14712ZM82.7789 11.4648V13.1141H85.878V14.5009H81.3292V7.14712H85.8255V8.53382H82.7789V10.0991H85.5628V11.4648H82.7789ZM90.3364 14.6479C89.2368 14.6479 88.3228 14.2802 87.5945 13.5449C86.8731 12.8165 86.5124 11.9095 86.5124 10.824C86.5124 9.73143 86.8731 8.82447 87.5945 8.1031C88.3228 7.36773 89.2368 7.00004 90.3364 7.00004C91.0017 7.00004 91.6145 7.15762 92.1748 7.47278C92.7421 7.78094 93.1833 8.20115 93.4985 8.73342L92.2483 9.45829C92.0662 9.12912 91.8071 8.87349 91.4709 8.6914C91.1348 8.50231 90.7566 8.40776 90.3364 8.40776C89.622 8.40776 89.0442 8.63187 88.603 9.0801C88.1688 9.53533 87.9517 10.1166 87.9517 10.824C87.9517 11.5243 88.1688 12.1021 88.603 12.5574C89.0442 13.0056 89.622 13.2297 90.3364 13.2297C90.7566 13.2297 91.1348 13.1387 91.4709 12.9566C91.8141 12.7675 92.0733 12.5118 92.2483 12.1897L93.4985 12.9145C93.1833 13.4468 92.7421 13.8705 92.1748 14.1857C91.6145 14.4939 91.0017 14.6479 90.3364 14.6479ZM93.812 7.14712H99.2222V8.53382H97.2367V14.5009H95.787V8.53382H93.812V7.14712ZM101.481 11.4648V13.1141H104.58V14.5009H100.032V7.14712H104.528V8.53382H101.481V10.0991H104.265V11.4648H101.481ZM105.602 7.14712H108.523C109.531 7.14712 110.372 7.5008 111.044 8.20816C111.723 8.90851 112.063 9.78046 112.063 10.824C112.063 11.8675 111.723 12.7395 111.044 13.4398C110.372 14.1472 109.531 14.5009 108.523 14.5009H105.602V7.14712ZM107.052 13.1141H108.523C109.16 13.1141 109.678 12.904 110.078 12.4838C110.477 12.0496 110.676 11.4963 110.676 10.824C110.676 10.1446 110.477 9.59486 110.078 9.17465C109.678 8.74743 109.16 8.53382 108.523 8.53382H107.052V13.1141Z" fill="white"/>
</svg>
