<svg viewBox="0 0 80 32" fill="none" xmlns="http://www.w3.org/2000/svg">
<g clip-path="url(#clip0_14352_2444)">
<path d="M80 14.4271C79.769 14.9241 79.528 15.3932 79.3089 15.8722C78.8004 16.9835 78.2967 18.0972 77.8018 19.2146C77.3288 20.2827 76.8784 21.361 76.4008 22.427C76.0536 23.202 75.6866 23.9684 75.313 24.7311C74.9718 25.4278 74.6272 26.124 74.2536 26.8035C73.3051 28.5286 72.1512 30.0898 70.5098 31.221C70.0795 31.5175 69.5818 31.719 69.105 31.9428C68.9083 32.0352 68.7399 32.0234 68.6756 31.7297C68.5699 31.2465 68.4143 30.7743 68.2818 30.297C68.2169 30.0634 68.3741 29.9712 68.5499 29.9132C69.1589 29.7123 69.6905 29.3764 70.1784 28.9709C71.1129 28.1943 71.8496 27.2562 72.3906 26.1674C72.4428 26.0622 72.4603 25.9203 72.443 25.803C72.3597 25.2408 72.2658 24.68 72.1628 24.1211C71.9433 22.9291 71.7182 21.7381 71.4912 20.5475C71.2858 19.4702 71.077 18.3936 70.8656 17.3175C70.6825 16.3855 70.5 15.4534 70.3033 14.5243C70.2483 14.2646 70.3614 14.2095 70.5784 14.2107C71.0887 14.2136 71.599 14.2168 72.1092 14.2095C72.3322 14.2063 72.4071 14.3035 72.4416 14.521C72.5628 15.2855 72.7124 16.0454 72.8451 16.8081C72.9197 17.2369 72.9816 17.6679 73.0504 18.0976C73.1403 18.659 73.2324 19.2199 73.3217 19.7814C73.4468 20.5685 73.5628 21.3572 73.6971 22.1428C73.7752 22.5995 73.8815 23.0515 73.9828 23.5431C74.1315 23.1978 74.2795 22.8692 74.4155 22.5358C74.8073 21.5757 75.1899 20.612 75.5842 19.653C76.0804 18.4463 76.5847 17.243 77.0853 16.0382C77.3064 15.5063 77.5198 14.9711 77.7548 14.4455C77.7978 14.3493 77.927 14.2285 78.018 14.2273C78.6618 14.2186 79.306 14.2381 79.975 14.2556C80 14.3096 80 14.3566 80 14.4271Z" fill="#EBEBEB"/>
<path d="M0 19.4895C0.29887 18.757 0.550036 18.0284 0.906576 17.3559C1.64097 15.9707 2.68742 14.8715 4.15691 14.2645C5.49714 13.7108 7.20608 13.6646 8.41971 14.7911C8.85254 15.1928 9.13198 15.6798 9.26649 16.2767C9.47023 17.1807 9.36308 18.0195 8.94389 18.834C8.61105 19.4807 8.06681 19.9041 7.44343 20.2224C6.72161 20.591 5.9442 20.7741 5.14315 20.9241C4.15659 21.1087 3.17331 21.1509 2.17979 21.148C2.03065 21.1476 1.87645 21.1445 1.87078 21.3597C1.85043 22.1322 1.86341 22.8961 2.25923 23.5989C2.70972 24.3988 3.39955 24.7964 4.29967 24.8543C5.38664 24.9243 6.38993 24.6281 7.34003 24.1292C7.58257 24.0018 7.64911 24.0805 7.68809 24.3127C7.74777 24.6683 7.82223 25.0216 7.90078 25.3736C7.95003 25.5943 7.91306 25.7613 7.69025 25.8634C7.02122 26.1698 6.35286 26.4713 5.60626 26.545C5.12433 26.5927 4.64398 26.7247 4.16457 26.7169C2.72341 26.6936 1.45257 26.2532 0.595129 25.004C0.368646 24.6741 0.220046 24.2904 0.0178422 23.9188C1.2666e-07 22.4438 1.25e-07 20.9813 0 19.4895ZM6.7252 15.998C6.67633 15.9616 6.63269 15.9099 6.57779 15.8909C5.71825 15.5947 4.89255 15.6958 4.16106 16.2184C3.21302 16.8957 2.62278 17.847 2.27502 18.9519C2.15752 19.3252 2.17281 19.3568 2.55598 19.3405C3.15534 19.3151 3.75332 19.2586 4.35227 19.2216C5.16991 19.171 5.93379 18.9609 6.63747 18.5244C7.46977 18.0081 7.51649 16.4273 6.7252 15.998Z" fill="#EBEBEB"/>
<path d="M42.686 7.48993C42.7642 7.51343 42.8417 7.55512 42.9206 7.55778C44.8239 7.62212 46.6798 7.9864 48.5014 8.50854C50.2992 9.02388 52.0079 9.76395 53.5907 10.7754C53.6226 10.7957 53.6431 10.8339 53.7156 10.9179C53.4984 10.9986 53.3162 11.076 53.1279 11.1336C52.8851 11.2079 52.6399 11.2782 52.3914 11.3289C51.8513 11.439 51.3109 11.5515 50.7661 11.6331C50.2186 11.715 49.6578 11.7221 49.1171 11.8322C48.4773 11.9624 47.8272 12.1084 47.2323 12.3654C46.9273 12.4972 46.6558 12.8487 46.5037 13.1657C46.135 13.9342 46.1112 14.7691 46.244 15.6042C46.3835 16.482 46.4946 17.3676 46.6965 18.2313C46.8557 18.9124 47.1339 19.5656 47.3591 20.2312C47.3815 20.2974 47.4034 20.3637 47.3781 20.5049C47.1093 20.3854 46.8407 20.2654 46.5716 20.1466C46.1702 19.9694 45.7816 19.7471 45.3639 19.6265C44.6433 19.4185 43.8998 19.2197 43.1458 19.3462C42.3433 19.4807 41.5522 19.6962 40.9882 20.3618C40.1389 21.3642 39.2758 22.3554 38.4513 23.3779C37.9517 23.9976 37.5365 24.6852 37.0425 25.3098C36.4479 26.0615 35.832 26.7991 35.1843 27.505C34.5995 28.1423 33.9595 28.7288 33.3438 29.3377C33.3117 29.3205 33.2795 29.3032 33.2474 29.286C33.2625 29.2018 33.2563 29.1055 33.2959 29.0352C34.0238 27.7464 34.7859 26.4761 35.4814 25.1702C36.207 23.8075 36.8945 22.423 37.5509 21.0254C37.9898 20.0908 38.4191 19.1394 38.7177 18.1544C39.04 17.0912 39.2071 15.9807 39.4371 14.8898C39.4818 14.6775 39.5112 14.4614 39.5359 14.2457C39.6156 13.5513 39.5531 12.8673 39.2027 12.2578C38.9426 11.8055 38.5642 11.4371 38.0243 11.3184C37.4833 11.1994 36.9406 11.0719 36.3917 11.0094C35.5739 10.9162 34.75 10.8768 33.8811 10.7944C33.3272 10.7856 32.8209 10.7969 32.3146 10.8082C31.2513 10.8582 30.1879 10.9081 29.1246 10.9581C29.1093 10.9296 29.0939 10.9011 29.0786 10.8726C29.312 10.7245 29.5325 10.5485 29.781 10.4332C30.7681 9.97526 31.7571 9.51986 32.7592 9.09651C33.3391 8.85154 33.937 8.63923 34.5423 8.46731C35.2037 8.27947 35.8795 8.13645 36.5555 8.00794C37.4174 7.84405 38.2845 7.70475 39.1523 7.57471C39.4778 7.52593 39.8117 7.53284 40.1944 7.50546C41.0601 7.49435 41.873 7.49214 42.686 7.48993Z" fill="#066AB6"/>
<path d="M48.8808 22.2287C49.0209 21.4207 49.1641 20.6393 49.2952 19.856C49.3769 19.3684 49.4368 18.8771 49.513 18.3885C49.5989 17.838 49.6979 17.2895 49.7802 16.7385C49.8446 16.3076 49.8894 15.8739 49.9483 15.4421C49.9913 15.1274 50.0428 14.8138 50.091 14.4997C50.1234 14.2889 50.2437 14.2036 50.4584 14.2087C50.8747 14.2185 51.2914 14.2068 51.7078 14.2129C52.0379 14.2177 52.0758 14.3229 52.0086 14.6482C51.9198 15.078 51.8898 15.52 51.8355 15.9487C52.1208 15.6945 52.3811 15.4672 52.6363 15.2342C53.1776 14.7401 53.7664 14.3308 54.4728 14.0988C55.4981 13.762 56.4833 13.825 57.3919 14.4152C57.8703 14.726 58.2409 15.1525 58.5091 15.6823C59.028 16.7073 59.1736 17.7913 59.1101 18.914C59.0602 19.7948 58.8645 20.6473 58.597 21.4918C58.359 22.243 58.0383 22.9407 57.6193 23.6042C57.1376 24.3669 56.5493 25.0229 55.8385 25.5777C55.1728 26.0971 54.4279 26.4448 53.6133 26.6292C52.8384 26.8046 52.0552 26.7913 51.2852 26.5754C50.989 26.4923 50.7035 26.3703 50.4062 26.292C50.3484 26.2768 50.2035 26.3718 50.1926 26.4327C50.0714 27.1147 49.9733 27.8008 49.8598 28.4843C49.7158 29.3507 49.5652 30.216 49.4132 31.081C49.3804 31.2674 49.2751 31.3656 49.0671 31.361C48.6092 31.351 48.1509 31.3608 47.6927 31.3578C47.3503 31.3554 47.2724 31.257 47.3391 30.9142C47.4241 30.478 47.5228 30.0444 47.5995 29.6068C47.7637 28.6707 47.9152 27.7323 48.0763 26.7956C48.2264 25.9221 48.3813 25.0495 48.5356 24.1768C48.6488 23.5359 48.7643 22.8953 48.8808 22.2287ZM51.0056 21.6491C50.8849 22.447 50.7712 23.246 50.6388 24.042C50.6035 24.2543 50.6778 24.3721 50.8454 24.4768C51.4266 24.84 52.0684 24.9069 52.7295 24.866C53.0077 24.8488 53.313 24.8617 53.5555 24.7503C54.2664 24.4237 54.8882 23.9568 55.3593 23.3205C56.4641 21.8279 57.0075 20.1566 56.9464 18.2898C56.9265 17.6829 56.7985 17.1206 56.4611 16.6105C55.9349 15.8149 55.074 15.638 54.3003 15.9352C53.3593 16.2966 52.7011 17.0203 52.2143 17.8928C51.7262 18.7677 51.3655 19.6892 51.2225 20.6902C51.1789 20.9956 51.0838 21.2937 51.0056 21.6491Z" fill="#EBEBEB"/>
<path d="M16.5156 25.0872C16.5602 24.6625 16.6033 24.2626 16.6465 23.8627C16.6271 23.8554 16.6076 23.848 16.5882 23.8407C16.3794 24.1364 16.1737 24.4342 15.9614 24.7274C15.3102 25.6268 14.49 26.2919 13.4044 26.6016C12.2192 26.9398 10.8434 26.6142 10.0353 25.6334C9.37131 24.8275 9.10881 23.902 9.07796 22.9055C9.05685 22.2237 9.08962 21.5233 9.22558 20.8574C9.43578 19.8277 9.78644 18.8415 10.3189 17.9132C11.0804 16.5857 12.0779 15.5176 13.4177 14.7861C14.1663 14.3774 14.9611 14.0808 15.8225 14.0125C16.3789 13.9685 16.9437 13.8613 17.4913 13.9163C18.2989 13.9974 19.0956 14.1924 19.8931 14.3575C19.9575 14.3708 20.0415 14.5338 20.032 14.6177C19.9914 14.9786 19.9225 15.3366 19.858 15.6945C19.7681 16.1926 19.6723 16.6896 19.5802 17.1873C19.4204 18.0513 19.2473 18.9131 19.106 19.7802C18.9294 20.8629 18.746 21.9463 18.6276 23.0362C18.518 24.0446 18.481 25.0615 18.433 26.0757C18.4201 26.3474 18.3536 26.4795 18.058 26.4671C17.6423 26.4498 17.2247 26.4484 16.8091 26.4676C16.5104 26.4814 16.4129 26.3407 16.432 26.0751C16.4551 25.7538 16.4865 25.433 16.5156 25.0872ZM12.2128 18.6474C11.5679 19.8508 11.2235 21.1318 11.2453 22.5012C11.249 22.7348 11.3305 22.9662 11.3613 23.2005C11.4547 23.9114 11.7772 24.4866 12.4574 24.7438C13.1475 25.0047 13.809 24.8029 14.3882 24.3807C15.0038 23.9319 15.4685 23.3466 15.8735 22.6981C16.4065 21.845 16.7383 20.9182 16.9458 19.9489C17.2147 18.6925 17.4314 17.4248 17.6712 16.1621C17.7069 15.9739 17.6439 15.8523 17.4443 15.8344C17.258 15.8178 17.0687 15.8272 16.8841 15.8012C15.8334 15.6531 14.8847 15.9548 14.0472 16.5473C13.2908 17.0824 12.6727 17.7732 12.2128 18.6474Z" fill="#EBEBEB"/>
<path d="M59.3871 24.3556C59.3015 23.6569 59.1139 22.9735 59.1601 22.3064C59.2373 21.1913 59.4052 20.0845 59.8507 19.0244C60.3575 17.8181 61.0193 16.7397 61.9686 15.8441C63.0486 14.8254 64.3114 14.1765 65.7986 14.0108C66.2704 13.9583 66.7534 13.863 67.2173 13.9143C68.0462 14.0058 68.8658 14.1874 69.6851 14.352C69.7603 14.3671 69.8613 14.5353 69.855 14.6257C69.8306 14.9757 69.7771 15.3246 69.7168 15.6709C69.6302 16.1689 69.5267 16.664 69.433 17.1609C69.2936 17.9008 69.1528 18.6405 69.0196 19.3816C68.9443 19.8004 68.8742 20.2205 68.8172 20.6422C68.7007 21.5031 68.5717 22.3634 68.4905 23.2279C68.4024 24.1667 68.3484 25.1095 68.31 26.0518C68.2975 26.3609 68.2102 26.4857 67.894 26.4679C67.5308 26.4474 67.1648 26.4483 66.8015 26.4677C66.4945 26.4842 66.3564 26.3811 66.3834 26.0595C66.4441 25.3371 66.4919 24.6136 66.5444 23.8906C66.5472 23.8532 66.5448 23.8154 66.5448 23.8427C66.1151 24.3852 65.6954 24.9923 65.1973 25.5261C64.4164 26.3631 63.4044 26.7736 62.2723 26.7295C61.365 26.6942 60.5583 26.3173 60.0199 25.5391C59.771 25.1793 59.5978 24.7668 59.3871 24.3556ZM66.7009 20.5607C66.8039 20.0863 66.9156 19.6135 67.0076 19.1369C67.1117 18.5981 67.1996 18.0561 67.2919 17.5151C67.372 17.0458 67.4584 16.5772 67.5171 16.1051C67.5272 16.0244 67.4227 15.8594 67.3542 15.8494C66.4009 15.7098 65.4587 15.721 64.5832 16.1963C63.5894 16.7359 62.8501 17.5385 62.3032 18.5163C61.8136 19.3916 61.45 20.3269 61.3528 21.3275C61.2692 22.1887 61.2036 23.0547 61.5892 23.8987C61.9435 24.6741 62.8775 25.0478 63.6794 24.7368C64.5118 24.4141 65.0919 23.7847 65.5836 23.0697C66.1 22.3189 66.4298 21.4788 66.7009 20.5607Z" fill="#EBEBEB"/>
<path d="M33.3144 24.2973C32.995 24.9409 32.6891 25.5655 32.367 26.1815C31.5925 27.6629 30.6629 29.0349 29.4695 30.2133C28.6753 30.9976 27.7343 31.5577 26.7002 31.9628C26.52 32.0334 26.3678 32.022 26.3099 31.7652C26.2007 31.281 26.065 30.8023 25.9264 30.3254C25.8533 30.0739 26.0002 29.975 26.1862 29.9077C28.0544 29.2316 29.2291 27.8191 30.1333 26.1379C30.2429 25.9341 30.2039 25.6237 30.1668 25.3726C30.0931 24.874 29.9767 24.3815 29.8706 23.888C29.7107 23.1444 29.5321 22.4045 29.3844 21.6585C29.2215 20.8366 29.0947 20.0075 28.9329 19.1854C28.8102 18.5618 28.6516 17.9454 28.5204 17.3234C28.4498 16.9886 28.4099 16.6474 28.3446 16.3114C28.2464 15.8067 28.1363 15.3042 28.0352 14.8C28.0149 14.6984 28.0105 14.5935 28.0015 14.4898C27.9862 14.3119 28.0571 14.2122 28.2473 14.2128C28.7889 14.2148 29.331 14.2026 29.8718 14.2242C29.9725 14.2282 30.1373 14.35 30.155 14.4405C30.2841 15.1014 30.3769 15.7693 30.4934 16.4327C30.6223 17.1665 30.7686 17.8972 30.8988 18.6308C30.9788 19.0811 31.0367 19.5354 31.1156 19.986C31.2494 20.7505 31.3973 21.5125 31.5287 22.2774C31.5986 22.684 31.6462 23.0943 31.7169 23.5953C31.8558 23.2985 31.9629 23.087 32.0553 22.8693C32.6748 21.4104 33.2928 19.9509 33.9079 18.4901C34.2968 17.5666 34.68 16.6407 35.0653 15.7156C35.2407 15.2946 35.3994 14.8654 35.5999 14.4568C35.6551 14.3443 35.8307 14.2293 35.9559 14.2237C36.5173 14.1988 37.0804 14.2123 37.6428 14.2131C37.8708 14.2134 37.9395 14.2839 37.8271 14.5193C37.5473 15.1052 37.2991 15.7061 37.026 16.2953C36.7647 16.8592 36.4826 17.4134 36.2195 17.9765C35.9877 18.4725 35.7727 18.9765 35.5447 19.4743C35.139 20.3598 34.7301 21.2438 34.3206 22.1276C33.9888 22.8438 33.654 23.5588 33.3144 24.2973Z" fill="#EBEBEB"/>
<path d="M26.8339 22.7612C26.7224 23.4619 26.639 24.1391 26.2651 24.7429C25.6537 25.73 24.7791 26.3365 23.6488 26.528C23.0412 26.6309 22.412 26.6739 21.7968 26.6469C21.0574 26.6145 20.3458 26.4 19.7285 25.9652C19.6381 25.9016 19.5623 25.7083 19.59 25.6046C19.6973 25.2044 19.8432 24.8139 19.9868 24.4243C20.0673 24.206 20.2102 24.1494 20.422 24.2868C21.1839 24.7812 22.0275 24.902 22.9193 24.8613C23.9213 24.8156 24.7423 23.8015 24.6162 22.7998C24.4959 21.845 23.8537 21.3433 23.1193 20.9081C22.2302 20.3813 21.4999 19.7061 21.1782 18.7038C20.79 17.4947 21.0844 16.3859 21.8509 15.4049C22.4648 14.6192 23.2981 14.2053 24.2698 13.998C25.331 13.7715 26.3234 13.9554 27.3052 14.3399C27.5687 14.4431 27.6491 14.6144 27.5527 14.8822C27.4264 15.2329 27.2923 15.5824 27.1957 15.9416C27.129 16.1898 27.015 16.2318 26.7882 16.1569C26.372 16.0193 25.9561 15.8655 25.5277 15.7841C24.9809 15.6802 24.4347 15.7156 23.9412 16.0309C22.9228 16.6815 22.87 18.0437 23.8454 18.8192C24.3069 19.1861 24.8124 19.4969 25.2821 19.8542C26.0966 20.4739 26.6719 21.2467 26.7679 22.3083C26.7809 22.4522 26.8166 22.594 26.8339 22.7612Z" fill="#EBEBEB"/>
<path d="M44.0436 5.34919C43.4422 6.0385 42.6545 6.33636 41.8115 6.41061C41.3861 6.44808 40.9167 6.30157 40.5082 6.13642C39.9561 5.91319 39.4744 5.54814 39.1421 5.03395C38.6852 4.32702 38.4522 3.57464 38.6066 2.70929C38.746 1.92753 39.0881 1.2756 39.6911 0.782248C39.9775 0.547942 40.3404 0.408031 40.6674 0.22305C41.2057 -0.0814827 41.8106 -0.0146964 42.3521 0.0775576C42.9775 0.184108 43.5465 0.527652 44.0078 1.015C44.7073 1.75404 44.9871 2.63652 44.8574 3.61993C44.8008 4.04922 44.5702 4.45956 44.3917 4.8667C44.3167 5.03794 44.1722 5.17862 44.0436 5.34919Z" fill="#F8A71A"/>
<path d="M42.6631 7.47796C41.873 7.49212 41.0601 7.49434 40.218 7.49322C40.4978 7.4721 40.8066 7.44059 41.1156 7.43961C41.6238 7.43801 42.1321 7.45618 42.6631 7.47796Z" fill="#066AB6"/>
<path d="M32.3353 10.812C32.8209 10.7968 33.3272 10.7855 33.8531 10.7913C33.3671 10.8108 32.8616 10.8133 32.3353 10.812Z" fill="#066AB6"/>
</g>
<defs>
<clipPath id="clip0_14352_2444">
<rect width="80" height="32" fill="white"/>
</clipPath>
</defs>
</svg>
