<svg xmlns="http://www.w3.org/2000/svg" viewBox="0 0 104 24" fill="none">
  <path fill-rule="evenodd" clip-rule="evenodd" d="M12.6971 12.4377H16.0265V17.7297H14.9649V16.0557C14.772 16.4337 14.5306 16.7577 14.2411 17.0817C13.614 17.6757 12.8419 17.9998 12.0698 17.9998C9.85025 17.9998 8.11328 15.5697 8.11328 12.4377C8.11328 9.30563 9.85025 6.82157 12.0217 6.82157C13.2279 6.76751 14.2894 7.52363 14.8684 8.65763V6.98357H15.8817V10.3856H14.8202C14.7237 9.89957 14.5306 9.46763 14.2894 9.08957C13.8068 8.38751 13.0349 7.95557 12.2628 7.90151C11.1049 7.90151 9.36789 9.03551 9.36789 12.3296C9.36789 14.9217 10.6223 16.8118 12.2628 16.8118C13.5656 16.7577 14.6272 15.6777 14.8684 14.2736C14.9168 14.0036 14.9168 13.6796 14.9168 13.4097H12.6489L12.6971 12.4377Z" fill="#FFFFFE"/>
  <path fill-rule="evenodd" clip-rule="evenodd" d="M22.059 13.5625L21.3835 13.6704C19.1639 13.9944 18.4401 14.4264 18.4401 15.4524C18.4885 16.3706 19.1639 17.0186 19.936 17.0186C20.9974 16.9645 21.9143 16.1004 22.059 14.9124V13.5625ZM24.1338 17.7745H22.059V16.3165C21.5764 17.3426 20.6115 17.9365 19.5982 17.9365C18.3919 18.0445 17.3303 16.9645 17.2339 15.6144C17.2339 15.5606 17.2339 15.5065 17.2339 15.4524C17.2339 13.8865 18.4401 13.1304 21.3352 12.8064L22.0106 12.7525V11.9425C22.0106 11.0244 21.3835 10.4304 20.3702 10.4304C19.357 10.4304 18.8262 10.8083 18.6331 11.8884H17.5234C17.6198 11.2404 17.9093 10.6463 18.3436 10.2144C18.8744 9.72839 19.5982 9.51233 20.2736 9.51233C21.7695 9.51233 23.0241 10.2684 23.0241 12.3204V16.8025H24.0374L24.1338 17.7745Z" fill="white"/>
  <path fill-rule="evenodd" clip-rule="evenodd" d="M27.1717 11.1389C27.5095 10.599 28.1368 9.46489 29.4879 9.46489C30.4528 9.46489 30.9836 10.0049 31.1766 11.1389C31.3697 10.761 31.5625 10.4369 31.8522 10.1129C32.2865 9.68083 32.8171 9.41089 33.3962 9.41089C34.5059 9.41089 35.1332 10.2209 35.1332 11.625V16.755H36.1465V17.727H34.1199V12.057C34.1199 10.923 33.7822 10.3829 33.0584 10.3829C31.804 10.3829 31.1283 12.057 31.1283 12.6509V16.755H32.1899V17.727H30.0669V11.895C30.0669 10.8689 29.7291 10.4369 29.0053 10.4369C27.8956 10.4369 27.0753 12.0029 27.0753 12.759V16.809H28.1368V17.781H25.0005V16.809H26.0619V10.5449H25.0005V9.57289H27.1236L27.1717 11.1389Z" fill="white"/>
  <path fill-rule="evenodd" clip-rule="evenodd" d="M39.2823 14.322C39.2823 15.6721 40.1992 16.7521 41.3572 16.8601C42.6117 16.8601 43.3837 15.6181 43.3837 13.62C43.3837 11.6221 42.5635 10.434 41.3572 10.434C40.2956 10.434 39.2341 11.73 39.2341 12.9181L39.2823 14.322ZM37.2559 6.59985H39.2823V11.2981C39.5719 10.7039 40.3922 9.51585 41.6468 9.51585C43.2873 9.51585 44.5417 11.406 44.5417 13.782C44.5417 15.9961 43.1907 17.8861 41.6468 17.8861C40.344 17.8861 39.7166 16.9141 39.2823 16.2661V17.7781H37.2075V16.8061H38.2208V7.57185H37.2559V6.59985Z" fill="white"/>
  <path fill-rule="evenodd" clip-rule="evenodd" d="M45.163 6.59985H47.2376V16.8061H48.203V17.7781H45.1147V16.8061H46.1763V7.51797H45.163V6.59985Z" fill="white"/>
  <path fill-rule="evenodd" clip-rule="evenodd" d="M54.2318 13.0224C54.2318 12.2665 53.9903 11.5644 53.5079 10.9703C53.1703 10.6463 52.736 10.4304 52.3017 10.4843C51.3849 10.5384 50.6131 11.2404 50.3715 12.2124C50.3235 12.4824 50.2267 12.7525 50.2267 13.0224H54.2318ZM55.2933 15.5065C55.1971 15.9925 55.0037 16.3706 54.7142 16.7484C54.1351 17.5046 53.3151 17.9365 52.3984 17.9365C50.4196 17.9365 49.0205 16.2086 49.0205 13.7245C49.0205 11.3484 50.4196 9.51233 52.2049 9.51233C53.9903 9.51233 55.4381 11.0784 55.4381 13.9404H50.1787C50.2754 15.1284 50.5163 15.8305 50.9987 16.3706C51.3849 16.7485 51.8674 16.9645 52.3497 16.9645C53.1703 16.9645 53.7007 16.5326 54.087 15.5605L55.2933 15.5065Z" fill="white"/>
  <path fill-rule="evenodd" clip-rule="evenodd" d="M61.0348 9.07838L59.7805 13.8304H62.2891L61.0348 9.07838ZM59.8766 7.08032H62.193L64.8469 16.0445H65.5702V17.7725H63.3992L62.772 15.4504H59.3942L58.7671 17.7725H56.5474V16.0445H57.2713L59.8766 7.08032Z" fill="white"/>
  <path fill-rule="evenodd" clip-rule="evenodd" d="M65.4751 9.62769H68.3705V11.1936H67.6467L68.6594 15.9998L69.8663 9.62769H71.7477L72.954 15.8918L73.9194 11.1936H73.1955V9.62769H76.0904V11.1936H75.4632L73.9194 17.7278H71.9893L70.783 12.1118L69.6249 17.7278H67.6947L66.1023 11.1936H65.4751V9.62769Z" fill="white"/>
  <path fill-rule="evenodd" clip-rule="evenodd" d="M81.2051 13.9404C79.5165 14.1024 78.4064 14.2644 78.4064 15.3984C78.4064 16.0466 78.8893 16.4785 79.6126 16.4785C80.4812 16.4785 81.2051 15.7226 81.2531 14.7504V13.9404H81.2051ZM82.9424 16.2086H83.5695V17.7745H81.3018V16.8025C80.7708 17.5585 79.9508 17.9365 79.0822 17.9365C77.6344 17.9365 76.5249 16.8566 76.5249 15.3984C76.5249 13.0224 78.9374 12.7525 81.2531 12.5364C81.2531 11.2943 80.8675 10.9164 79.9508 10.9164C79.0341 10.9164 78.6959 11.4024 78.6478 12.1584V12.2124L76.9105 12.1584C77.0073 10.5384 78.1654 9.51233 79.9021 9.51233C81.929 9.51233 82.9904 10.5384 82.9904 12.3744L82.9424 16.2086Z" fill="white"/>
  <path fill-rule="evenodd" clip-rule="evenodd" d="M86.9894 10.926C87.472 9.89996 88.0035 9.46802 88.8235 9.46802C89.1131 9.46802 89.3539 9.5219 89.6435 9.57596V11.4661C89.3539 11.412 89.0643 11.3579 88.7747 11.3579C87.8582 11.3041 87.0859 12.06 87.0381 13.032V16.1641H87.9069V17.7301H84.5283V16.1641H85.2528V11.1959H84.5283V9.63002H86.9894V10.926Z" fill="white"/>
  <path fill-rule="evenodd" clip-rule="evenodd" d="M95.047 12.705C95.047 11.787 94.3722 11.085 93.599 11.085H93.5512C92.7312 11.085 92.0555 11.787 91.9102 12.6509L95.047 12.705ZM96.9288 15.0809C96.5905 16.8631 95.2888 17.943 93.5512 17.943C91.5241 17.943 90.0283 16.161 90.0283 13.677C90.0283 11.1929 91.5241 9.41089 93.5512 9.41089C94.6608 9.41089 95.7217 10.0049 96.3496 11.085C96.8323 12.0029 97.1219 13.029 97.0741 14.1089H91.8624C92.0555 16.2151 93.2616 16.323 93.599 16.323C94.2747 16.3771 94.9027 15.837 95.0947 15.135L96.9288 15.0809Z" fill="white"/>
</svg>
