<svg viewBox="0 0 60 24" fill="none" xmlns="http://www.w3.org/2000/svg">
<mask id="mask0_4441_42163" style="mask-type:alpha" maskUnits="userSpaceOnUse" x="1" y="0" width="58" height="24">
<path d="M59 0H1V24H59V0Z" fill="#C4C4C4"/>
</mask>
<path d="M11.8195 10.4696C11.8114 10.7175 11.763 11.4053 11.1739 11.8931C10.5365 12.421 9.45515 12.5409 8.67239 12.5409C8.37384 12.5409 8.06715 12.5329 7.7686 12.5009C7.1553 12.4289 6.45328 12.277 6.07401 11.7092C5.84 11.3493 5.81579 10.9734 5.80772 10.5416H7.81704C7.81704 10.6055 7.79282 10.8934 7.98649 11.0614C8.09137 11.1574 8.34155 11.2533 8.68046 11.2533C8.73696 11.2533 9.18075 11.2453 9.439 11.0534C9.73755 10.8295 9.70526 10.3976 9.70526 10.3176C9.70526 10.0857 9.71334 9.86178 9.71334 9.63786C9.61653 9.78978 9.60846 9.8058 9.51966 9.86976C9.18883 10.1337 8.68046 10.1977 8.27697 10.1977C7.68788 10.1977 7.18759 10.0857 6.7115 9.72582C6.30803 9.41394 5.78351 8.76612 5.78351 7.54254C5.78351 7.2786 5.80772 6.22296 6.49362 5.50319C6.97779 4.99135 7.72017 4.79942 8.40606 4.80742C8.56745 4.80742 9.18883 4.80742 9.64876 5.1673C9.74563 5.23927 9.80213 5.29526 9.9393 5.47919L9.93123 4.95937H11.8437L11.8356 10.1577C11.8356 10.2697 11.8356 10.3656 11.8195 10.4696ZM9.22111 6.4149C9.15654 6.38292 9.01937 6.3189 8.8257 6.32694C8.68853 6.32694 8.54329 6.35892 8.43028 6.4149C8.11559 6.56682 7.90577 6.91074 7.90577 7.6065C7.90577 8.07036 8.01071 8.35824 8.14788 8.51022C8.22046 8.59818 8.30926 8.64618 8.41414 8.69418C8.4545 8.71812 8.60781 8.75814 8.76919 8.75814C8.85799 8.75814 9.00323 8.75814 9.18883 8.67018C9.63267 8.47824 9.68105 7.9344 9.68105 7.51854C9.68105 7.12668 9.64069 6.6228 9.22111 6.4149ZM16.0802 10.4776V10.0537C15.9914 10.1177 15.8865 10.2056 15.6686 10.3096C15.4346 10.4296 14.9262 10.6055 14.2323 10.6055C14.0951 10.6055 13.7158 10.6055 13.3446 10.4696C12.6264 10.1897 12.2391 9.57384 12.2391 8.83008C12.2391 8.53422 12.3037 7.87044 13.0057 7.40658C13.4656 7.10268 14.0547 7.0227 14.5954 6.9507C14.9101 6.91074 15.2409 6.86274 15.5476 6.80676C15.6848 6.77478 15.8381 6.7428 15.9752 6.70278C15.9752 6.67878 15.9752 6.53484 15.943 6.44688C15.8784 6.22296 15.7171 6.063 15.2248 6.063C15.0634 6.063 14.9585 6.087 14.902 6.09498C14.555 6.18294 14.5227 6.4629 14.4904 6.58284L12.4166 6.63084C12.4408 6.51084 12.4731 6.40692 12.4893 6.30294C12.5457 6.087 12.6587 5.71112 13.1025 5.36723C13.5464 5.03134 14.2161 4.79142 15.4184 4.79942C16.2899 4.79942 17.4681 4.94337 17.8958 5.83108C18.0168 6.07902 18.0572 6.29496 18.0572 6.80676L18.0491 9.8058C18.0491 10.2056 18.1056 10.2937 18.2428 10.4856L16.0802 10.4776ZM15.128 8.17434C14.8939 8.23032 14.555 8.30226 14.3856 8.51022C14.3613 8.5422 14.2888 8.6382 14.2888 8.76612C14.2888 8.93406 14.4259 9.19002 14.8375 9.19002C15.0311 9.19002 15.2006 9.126 15.3781 9.03804C15.9995 8.71014 15.9672 8.1663 15.9672 7.9104C15.6848 8.01438 15.4104 8.09436 15.128 8.17434ZM28.491 10.5016L28.4991 7.0227C28.4991 6.67878 28.4991 6.38292 28.3942 6.063C28.1279 5.25527 27.4339 5.02334 27.1515 4.94337C26.8206 4.8474 26.5624 4.8554 26.4252 4.8554C25.5214 4.8394 25.0615 5.19129 24.8033 5.45521C24.7306 5.52718 24.6096 5.64714 24.5128 5.87107C24.3917 5.65514 24.3191 5.52718 24.2384 5.44721C23.7058 4.8474 22.7778 4.8474 22.5841 4.8474C21.8256 4.8474 21.3576 5.13531 21.1316 5.34324C21.0429 5.43121 20.9622 5.53518 20.8331 5.75911V4.97536H18.6947L18.6866 10.4856H20.9057L20.9138 7.49454C20.9138 7.3266 20.946 7.21464 20.9702 7.15068C21.1236 6.6948 21.5835 6.63882 21.7369 6.63882C21.9063 6.63882 22.3502 6.6948 22.4793 7.15866C22.5115 7.28664 22.5115 7.3746 22.5115 7.50252L22.4954 10.4856H24.7065L24.7145 7.55052C24.7145 7.41456 24.7145 7.3026 24.7468 7.17462C24.884 6.68682 25.352 6.6468 25.5214 6.6468C26.3607 6.6468 26.2961 7.39056 26.2961 7.6065L26.2881 10.4856L28.491 10.5016ZM33.946 10.3176C33.5667 10.5416 33.131 10.6455 32.6871 10.6455C32.1223 10.6455 31.7188 10.4616 31.5252 10.3336C31.4283 10.2616 31.3637 10.1817 31.2911 10.1017V10.5095H29.1527L29.1608 3H31.3637L31.3718 5.38323C31.4687 5.28726 31.5412 5.22328 31.6623 5.13531C31.9851 4.91938 32.3805 4.8394 32.7759 4.8394C33.4618 4.8394 34.0428 5.07932 34.5028 5.57516C34.8336 5.93505 35.1967 6.53484 35.1967 7.63848C35.2048 7.95042 35.1806 9.57384 33.946 10.3176ZM32.792 6.7188C32.5984 6.4389 32.2998 6.39888 32.1788 6.39888C32.09 6.39888 31.8882 6.42288 31.7107 6.55884C31.3556 6.84678 31.3153 7.3266 31.3153 7.74246C31.3153 8.12634 31.3556 8.6382 31.6785 8.8941C31.743 8.95008 31.9205 9.06204 32.1707 9.06204C32.2675 9.06204 32.5258 9.03006 32.7275 8.83008C32.9131 8.6382 33.026 8.30226 33.026 7.74246C33.026 7.3986 32.9938 7.00668 32.792 6.7188ZM37.8032 10.5095L37.8193 3H35.6002L35.5922 10.5095H37.8032ZM38.473 4.46353V3.008H40.684V4.46353H38.473ZM38.4568 10.5176L38.4649 5.00735H40.6759L40.6679 10.5176H38.4568ZM47.2768 10.5256L47.2848 7.0467C47.2848 6.65484 47.2525 6.4629 47.2122 6.27894C47.1235 5.91905 46.9459 5.55917 46.6554 5.31925C46.1309 4.87139 45.445 4.8634 45.2432 4.8634C44.6784 4.8634 44.0813 5.00735 43.6778 5.41522C43.5728 5.51918 43.5486 5.54318 43.4115 5.74311V5.00735H41.3296L41.3215 10.5176H43.5245L43.5325 7.5825C43.5325 7.3506 43.5245 6.67878 44.3395 6.67878C44.8397 6.67878 45.0011 6.94272 45.0576 7.13466C45.0899 7.26264 45.0899 7.38258 45.0899 7.51056L45.0819 10.5176L47.2768 10.5256ZM53.7566 10.5335C53.7485 10.7815 53.7001 11.4692 53.111 11.9571C52.4816 12.4849 51.3922 12.6049 50.6094 12.6049C50.3109 12.6049 50.0042 12.5969 49.7057 12.5649C49.0924 12.4929 48.3823 12.341 48.0111 11.7731C47.7771 11.4133 47.7528 11.0374 47.7448 10.6055H49.7541C49.7541 10.6695 49.7299 10.9574 49.9235 11.1254C50.0284 11.2213 50.2786 11.3173 50.6175 11.3173C50.674 11.3173 51.1178 11.3093 51.3761 11.1173C51.6746 10.8934 51.6423 10.4616 51.6423 10.3816C51.6423 10.1497 51.6504 9.92574 51.6504 9.70182C51.5536 9.8538 51.5455 9.86976 51.4567 9.93378C51.1259 10.1977 50.6175 10.2616 50.214 10.2616C49.625 10.2616 49.1166 10.1577 48.6486 9.78978C48.2451 9.4779 47.7206 8.83014 47.7206 7.6065C47.7206 7.34262 47.7448 6.28692 48.4307 5.56717C48.9149 5.05534 49.6572 4.8634 50.3432 4.87139C50.5046 4.87139 51.1259 4.87139 51.5859 5.23128C51.6827 5.30326 51.7392 5.35924 51.8763 5.54318L51.8683 5.02334H53.7807L53.7727 10.2217C53.7727 10.3336 53.7726 10.4296 53.7566 10.5335ZM51.1582 6.47886C51.0936 6.44688 50.9564 6.38292 50.7627 6.3909C50.6256 6.3909 50.4803 6.42288 50.3673 6.47886C50.0526 6.63084 49.8428 6.9747 49.8428 7.67046C49.8428 8.13432 49.9478 8.42226 50.0849 8.57418C50.1576 8.66214 50.2463 8.71014 50.3512 8.75814C50.3915 8.78214 50.5449 8.8221 50.7063 8.8221C50.795 8.8221 50.9403 8.8221 51.1259 8.73414C51.5697 8.5422 51.6182 7.99836 51.6182 7.5825C51.6182 7.19862 51.5778 6.68682 51.1582 6.47886ZM17.0566 18.8269C17.6537 18.8269 18.267 18.7309 18.4526 18.7149V17.2194C18.2347 17.2594 18.1863 17.2594 18.0572 17.2594C17.4762 17.2594 17.4439 16.9075 17.4439 16.6835L17.4843 14.5643H18.4526V13.3726H17.5085L17.5246 11.6372H15.3055L15.2732 13.3646H14.4985V14.5562H15.2571L15.2167 17.2274C15.2167 17.4193 15.2248 17.6192 15.2813 17.8192C15.4507 18.379 15.8865 18.8189 17.0566 18.8269ZM27.3452 16.4036C27.3452 16.4036 27.3452 16.6596 27.3936 16.8275C27.4662 17.0434 27.6841 17.4433 28.2732 17.4353C28.6121 17.4353 28.7977 17.3153 28.9025 17.2274C29.1285 17.0434 29.2334 16.8035 29.2818 16.7315L31.0894 17.4913C31.0329 17.5793 30.9684 17.6912 30.8231 17.8592C30.4358 18.307 29.9919 18.547 29.8063 18.6429C29.5401 18.7709 28.9591 18.9948 28.1682 18.9948C27.7083 18.9948 27.2644 18.9308 26.8529 18.7629C25.707 18.2911 25.0937 17.1874 25.1018 15.9878C25.1018 14.8522 25.6344 14.1484 25.9492 13.8445C26.748 13.0927 27.8455 13.0367 28.1601 13.0367C28.5394 13.0367 29.6692 13.0927 30.4761 13.9564C30.7424 14.2444 30.9441 14.6042 31.0652 14.9801C31.2104 15.46 31.2266 15.9238 31.2266 16.4276L27.3452 16.4036ZM28.9268 14.9401C28.7815 14.4843 28.37 14.4203 28.2005 14.4203C28.0311 14.4283 27.9181 14.4763 27.8535 14.5082C27.442 14.6842 27.3936 15.1321 27.3694 15.252H28.9752C28.9671 15.188 28.9671 15.0761 28.9268 14.9401ZM35.2129 14.9801C35.3178 14.9801 35.4308 14.9881 35.5357 15.0041V13.1567C34.9546 13.1567 34.4866 13.1727 33.9944 13.5166C33.8733 13.5886 33.8007 13.6525 33.6958 13.7485V13.2687H31.5735L31.5655 18.7789H33.7604L33.7684 16.1877C33.7684 15.9958 33.7684 15.8438 33.833 15.6679C34.0993 14.9161 35.0434 14.9721 35.2129 14.9801ZM39.3687 18.7869V18.363C39.2799 18.427 39.175 18.515 38.9571 18.619C38.7231 18.7389 38.2147 18.9148 37.5207 18.9148C37.3836 18.9148 37.0043 18.9148 36.6331 18.7789C35.9149 18.499 35.5276 17.8832 35.5276 17.1394C35.5276 16.8435 35.5922 16.1797 36.2942 15.7159C36.7541 15.404 37.3432 15.332 37.8839 15.26C38.1905 15.22 38.5294 15.1721 38.8361 15.1161C38.9733 15.0841 39.1266 15.0521 39.2637 15.0121C39.2637 14.9881 39.2637 14.8442 39.2315 14.7562C39.1669 14.5322 39.0056 14.3723 38.5133 14.3723C38.3519 14.3723 38.247 14.3963 38.1905 14.4043C37.8435 14.4923 37.8112 14.7722 37.779 14.8921L35.7051 14.9401C35.7293 14.8202 35.7616 14.7162 35.7778 14.6122C35.8343 14.3963 35.9472 14.0204 36.391 13.6765C36.8349 13.3406 37.5046 13.1007 38.7069 13.1087C39.5785 13.1087 40.7566 13.2527 41.1843 14.1404C41.3053 14.3883 41.3457 14.6122 41.3457 15.1161L41.3376 18.1151C41.3376 18.523 41.3941 18.6029 41.5313 18.7949L39.3687 18.7869ZM38.4165 16.4756C38.1824 16.5316 37.8516 16.6036 37.6741 16.8115C37.6498 16.8435 37.5773 16.9395 37.5773 17.0674C37.5773 17.2354 37.7144 17.4913 38.126 17.4913C38.3197 17.4913 38.4891 17.4273 38.6666 17.3393C39.288 17.0114 39.2557 16.4677 39.2557 16.2117C38.9733 16.3157 38.6989 16.4036 38.4165 16.4756ZM45.5902 18.9308C45.4288 18.9308 44.8478 18.9308 44.3879 18.619C44.3152 18.563 44.2668 18.523 44.1539 18.419V20.7862H41.9832L41.9912 13.2767H44.1458V13.7005C44.2507 13.5726 44.2991 13.5326 44.3637 13.4846C44.5654 13.3247 44.985 13.1247 45.6225 13.1247C47.3574 13.1247 48.0433 14.5322 48.0433 16.0598C48.0433 17.6192 47.3171 18.9388 45.5902 18.9308ZM45.6306 15.0281C45.4369 14.7722 45.1464 14.7322 45.0415 14.7322C44.9528 14.7322 44.7833 14.7402 44.6138 14.8361C44.1619 15.0761 44.1377 15.6359 44.1377 16.0678C44.1377 16.4916 44.17 17.0594 44.5977 17.2913C44.7672 17.3873 44.9124 17.3873 44.985 17.3873C45.0819 17.3873 45.2352 17.3794 45.4127 17.2754C45.8081 17.0275 45.8646 16.4996 45.8646 16.0997C45.8646 15.7559 45.8404 15.316 45.6306 15.0281ZM54.2165 13.3007H51.9248C51.9167 13.3646 51.0856 16.8915 51.0856 16.8915L50.2947 13.3007H47.9869L49.7379 18.363C49.8267 18.6109 49.9074 18.8429 49.9074 18.9229C49.9074 19.1228 49.7541 19.1867 49.4475 19.1867C49.2296 19.1867 49.0278 19.1627 48.818 19.1548V20.7143L49.4313 20.7782C49.6169 20.8022 49.8106 20.7862 49.9881 20.7862C50.5368 20.7862 50.9645 20.7943 51.4083 20.4503C51.8279 20.1065 52.0216 19.6106 52.191 19.1228L54.2165 13.3007ZM24.658 14.4523C24.5692 13.9885 24.3514 13.7085 24.2061 13.5726C23.8107 13.1807 23.1974 13.0208 22.6649 13.0208C21.8579 13.0208 21.3576 13.3247 21.1397 13.5326C21.0671 13.6046 21.0106 13.6606 20.8896 13.8125L20.8976 11.2613H18.6947L18.6866 18.7709H20.8815L20.8896 14.8442H22.8505L22.8424 18.7709H24.7065L24.7145 15.1801C24.7225 14.9002 24.7145 14.7242 24.658 14.4523Z" fill="white"/>
<path d="M20.8895 14.8276L22.1322 15.2515L22.1241 18.1785L20.8814 18.7543L20.8895 14.8276Z" fill="#8C8C8D"/>
<defs>
<clipPath id="clip0_4441_42163">
<rect width="58" height="24" fill="white" transform="translate(1)"/>
</clipPath>
<clipPath id="clip1_4441_42163">
<rect width="58" height="24" fill="white" transform="translate(1)"/>
</clipPath>
</defs>
</svg>
