<svg viewBox="0 0 32 24" fill="none" xmlns="http://www.w3.org/2000/svg">
<mask id="mask0_4441_42161" style="mask-type:alpha" maskUnits="userSpaceOnUse" x="0" y="0" width="32" height="24">
<path d="M32 0H0V24H32V0Z" fill="#C4C4C4"/>
</mask>
<path fill-rule="evenodd" clip-rule="evenodd" d="M8.91373 21.7014C8.86708 22.7307 8.16314 23.4001 7.22148 23.4001C6.72733 23.4001 6.30296 23.2135 5.9674 22.8446C5.68777 22.5395 5.53847 22.1433 5.53847 21.6969C5.53847 21.2459 5.71557 20.8315 6.05604 20.5037C6.37754 20.1891 6.77391 20.0343 7.25865 20.0343C7.93465 20.0343 8.45699 20.358 8.71324 20.9179H8.12124C7.9021 20.6449 7.59434 20.5037 7.22148 20.5037C6.90899 20.5037 6.62007 20.6218 6.40093 20.8405C6.16788 21.0726 6.0374 21.3918 6.0374 21.7014C6.0374 22.043 6.15841 22.3526 6.37293 22.5713C6.60142 22.8034 6.91373 22.9357 7.22148 22.9357C7.72025 22.9357 8.11176 22.6759 8.36358 22.1569H6.86259V21.7014H8.91373Z" fill="white"/>
<path fill-rule="evenodd" clip-rule="evenodd" d="M10.4502 20.7071L9.97447 21.9366H10.9164L10.4502 20.7071ZM9.42905 23.3349H8.92081L10.217 20.0968H10.6832L11.9791 23.3349H11.4524L11.0887 22.3924H9.8021L9.42905 23.3349Z" fill="white"/>
<path fill-rule="evenodd" clip-rule="evenodd" d="M12.1621 23.3349V20.0968H12.8753L13.8357 22.6018L14.7961 20.0968H15.5001V23.3349H15.0479L15.0804 20.525L14.0036 23.3349H13.6631L12.5911 20.525L12.6236 23.3349H12.1621Z" fill="white"/>
<path fill-rule="evenodd" clip-rule="evenodd" d="M17.6087 23.4001C17.119 23.4001 16.7041 23.2225 16.3778 22.8855C16.0655 22.5623 15.9068 22.1614 15.9068 21.6833C15.9068 21.237 16.0794 20.8269 16.4103 20.5128C16.7367 20.1982 17.1472 20.0343 17.618 20.0343C18.3919 20.0343 19.0537 20.531 19.2682 21.3279H18.3918C18.2148 21.009 17.9489 20.8405 17.6226 20.8405C17.1282 20.8405 16.7415 21.2138 16.7415 21.6878C16.7415 22.2024 17.1518 22.5986 17.6087 22.5986C17.9209 22.5986 18.1961 22.4347 18.3732 22.134H19.2545C19.0352 22.9219 18.4057 23.4001 17.6087 23.4001Z" fill="white"/>
<path fill-rule="evenodd" clip-rule="evenodd" d="M20.7915 21.158L20.4606 22.1962H21.1181L20.7915 21.158ZM20.0738 23.3349H19.1879L20.4606 20.0968H21.1226L22.3955 23.3349H21.5002L21.337 22.8659H20.2417L20.0738 23.3349Z" fill="white"/>
<path fill-rule="evenodd" clip-rule="evenodd" d="M23.4279 21.5906C23.8289 21.5906 24.0245 21.4904 24.0245 21.1988C24.0245 20.9301 23.8523 20.821 23.4932 20.821H23.2694V21.5906H23.4279ZM22.4582 23.3349V20.0968H23.5585C23.9079 20.0968 24.1739 20.1195 24.3979 20.2743C24.6914 20.4746 24.8453 20.7798 24.8453 21.1806C24.8453 21.7044 24.5655 22.0962 24.0947 22.2235L24.9058 23.3349H23.9033L23.2694 22.2921V23.3349H22.4582Z" fill="white"/>
<path fill-rule="evenodd" clip-rule="evenodd" d="M25.2758 23.3343V20.0962H27.0753V20.8113H26.087V21.335H27.0753V22.0545H26.087V22.6194H27.0753V23.3343H25.2758Z" fill="white"/>
<path fill-rule="evenodd" clip-rule="evenodd" d="M26.4867 11.2038C26.3977 11.1546 26.2997 11.1215 26.1944 11.1073C26.1697 11.1032 26.1451 11.1024 26.12 11.1C26.1066 11.0993 26.0939 11.096 26.0803 11.096H26.0427C26.0093 11.0952 25.976 11.0936 25.9429 11.096H19.4612C19.0025 11.096 18.6307 11.4593 18.6307 11.9071C18.6307 12.3552 19.0025 12.7185 19.4612 12.7185H21.9796C22.0625 12.7192 22.1299 12.7851 22.1299 12.8665C22.1299 12.9134 22.1044 12.9521 22.0692 12.9791C20.6886 13.6996 18.9126 14.1362 16.9696 14.1362C16.4966 14.1362 16.0344 14.1094 15.5843 14.06V15.9019C15.9764 15.9299 16.3743 15.946 16.7784 15.946C19.4827 15.946 21.9428 15.3001 23.7868 14.2447L23.7873 14.2472C23.8102 14.2355 23.8358 14.2289 23.8633 14.2289C23.9536 14.2289 24.0267 14.3003 24.0267 14.3885C24.0267 14.4044 24.0237 14.4199 24.0187 14.4349L23.6345 15.454C23.4323 15.9904 23.713 16.585 24.2622 16.7824C24.3828 16.826 24.5065 16.8465 24.6281 16.8465C25.0592 16.8465 25.464 16.5877 25.6217 16.1695L27.0118 12.4837C27.2004 11.983 26.965 11.4355 26.4867 11.2038Z" fill="white"/>
<path fill-rule="evenodd" clip-rule="evenodd" d="M16.9696 4.24387C18.928 4.24372 20.7206 4.68433 22.106 5.41506C22.106 5.41506 22.9858 6.03366 23.4044 5.43983C23.8848 4.75846 22.9256 4.3343 22.9256 4.3343C21.2064 3.54461 19.0801 3.07764 16.7784 3.07764C16.3743 3.07764 15.9764 3.09361 15.5843 3.12173V4.3204C16.0344 4.27104 16.4966 4.24387 16.9696 4.24387Z" fill="white"/>
<path fill-rule="evenodd" clip-rule="evenodd" d="M7.01779 0C6.20911 0 5.55319 0.640632 5.55319 1.4308V17.0427C5.55319 17.833 6.20911 18.4733 7.01779 18.4733H15.5852V15.9013C10.4303 15.5332 6.42647 12.8134 6.42647 9.5112C6.42647 6.20886 10.4303 3.48928 15.5852 3.1212V0H7.01779Z" fill="white"/>
<path fill-rule="evenodd" clip-rule="evenodd" d="M9.01846 9.18898C9.01846 11.6262 11.8531 13.6506 15.5827 14.0588V4.31921C11.8531 4.72724 9.01846 6.75136 9.01846 9.18898Z" fill="white"/>
<defs>
<clipPath id="clip0_4441_42161">
<rect width="32" height="24" fill="white"/>
</clipPath>
<clipPath id="clip1_4441_42161">
<rect width="32" height="24" fill="white"/>
</clipPath>
</defs>
</svg>
