<svg viewBox="0 0 75 32" fill="none" xmlns="http://www.w3.org/2000/svg">
<path d="M35.6028 15.7253V22.7603H33.5256V5.38691H39.0345C39.6921 5.37215 40.3459 5.49746 40.9581 5.7556C41.5704 6.01375 42.129 6.39962 42.6017 6.89095C43.0792 7.35244 43.4593 7.91842 43.7163 8.55084C43.9733 9.18326 44.1014 9.86746 44.0918 10.5575C44.1055 11.2512 43.9794 11.9398 43.7222 12.5763C43.465 13.2127 43.0828 13.7819 42.6017 14.2448C41.6384 15.2318 40.4494 15.7248 39.0345 15.7239H35.6028V15.7253ZM35.6028 7.52583V13.5905H39.0861C39.468 13.6027 39.848 13.5291 40.2019 13.3744C40.5558 13.2197 40.8758 12.9874 41.1413 12.6922C41.4055 12.4163 41.6154 12.0862 41.7588 11.7216C41.9022 11.3569 41.9761 10.9651 41.9761 10.5693C41.9761 10.1734 41.9022 9.78156 41.7588 9.41692C41.6154 9.05227 41.4055 8.72222 41.1413 8.44627C40.8791 8.14492 40.5603 7.9069 40.2059 7.74797C39.8516 7.58905 39.4699 7.51285 39.0861 7.52445H35.6028V7.52583Z" fill="white"/>
<path d="M48.8777 10.4851C50.4129 10.4851 51.6248 10.9259 52.5133 11.8076C53.4017 12.6892 53.8455 13.898 53.8447 15.4339V22.76H51.8579V21.1104H51.7676C50.9075 22.4689 49.7635 23.1481 48.3358 23.1481C47.1171 23.1481 46.0974 22.76 45.2769 21.9837C44.8831 21.6274 44.5683 21.1812 44.3554 20.6776C44.1424 20.174 44.0368 19.6257 44.0461 19.0727C44.0461 17.8426 44.4787 16.8644 45.344 16.1381C46.2092 15.4117 47.3643 15.0476 48.8093 15.0457C50.0426 15.0457 51.0584 15.2883 51.8566 15.7735V15.2634C51.8589 14.8863 51.7832 14.5135 51.6348 14.1718C51.4864 13.8302 51.2691 13.5283 50.9986 13.288C50.4494 12.7556 49.7335 12.465 48.9938 12.4743C47.8335 12.4743 46.9154 13.0002 46.2393 14.0518L44.4099 12.8139C45.4162 11.2614 46.9055 10.4851 48.8777 10.4851ZM46.1903 19.1212C46.1889 19.4052 46.2507 19.6855 46.3705 19.9387C46.4904 20.1919 46.6648 20.4106 46.8792 20.5767C47.3386 20.965 47.9088 21.1707 48.4932 21.1589C49.3697 21.1573 50.2099 20.7825 50.8296 20.1165C51.5177 19.4206 51.8617 18.6041 51.8617 17.6671C51.2141 17.1126 50.311 16.8353 49.1525 16.8353C48.3087 16.8353 47.6052 17.0539 47.0418 17.491C46.4728 17.9346 46.1903 18.4738 46.1903 19.1212Z" fill="white"/>
<path d="M65.2499 10.8733L58.3141 27.9999H56.1699L58.7437 22.0073L54.1831 10.8733H56.4408L59.7371 19.4123H59.7823L62.9883 10.8733H65.2499Z" fill="white"/>
<path d="M27.2084 14.2089C27.2092 13.5287 27.1557 12.8498 27.0485 12.1794H18.2885V16.0234H23.3058C23.2031 16.6373 22.9858 17.2226 22.667 17.7438C22.3481 18.2651 21.9343 18.7116 21.4506 19.0564V21.5516H24.445C26.1983 19.8147 27.2084 17.246 27.2084 14.2089Z" fill="#4285F4"/>
<path d="M18.2887 23.9624C20.7954 23.9624 22.9061 23.078 24.4452 21.5531L21.4508 19.0579C20.6174 19.6651 19.544 20.0117 18.2887 20.0117C15.8658 20.0117 13.8093 18.2567 13.074 15.8918H9.98926V18.4633C10.7624 20.1163 11.9479 21.5059 13.4135 22.4769C14.879 23.448 16.5669 23.9623 18.2887 23.9624Z" fill="#34A853"/>
<path d="M13.0738 15.8913C12.6851 14.6521 12.6851 13.3101 13.0738 12.0709V9.49951H9.98911C9.33872 10.8901 9 12.4248 9 13.9811C9 15.5374 9.33872 17.0722 9.98911 18.4627L13.0738 15.8913Z" fill="#FBBC04"/>
<path d="M18.2887 7.95135C19.6134 7.9281 20.8934 8.46588 21.8521 9.44846L24.5033 6.5998C22.8221 4.90318 20.595 3.97171 18.2887 4.00065C16.5669 4.00074 14.879 4.51501 13.4135 5.48607C11.9479 6.45712 10.7624 7.84672 9.98926 9.49975L13.074 12.0712C13.8093 9.7063 15.8658 7.95135 18.2887 7.95135Z" fill="#EA4335"/>
</svg>
