<svg viewBox="0 0 44 16" fill="none" xmlns="http://www.w3.org/2000/svg">
<g clip-path="url(#clip0_28704_55707)">
<path fill-rule="evenodd" clip-rule="evenodd" d="M40.3331 5.88072C40.3331 5.43839 40.6869 5.06684 41.1116 5.06684C41.5539 5.06684 41.89 5.43839 41.89 5.88072C41.89 6.32304 41.5539 6.6946 41.1116 6.6946C40.6869 6.71229 40.3331 6.34074 40.3331 5.88072ZM41.1116 6.51767C41.4477 6.51767 41.6954 6.23458 41.6954 5.89841C41.6954 5.56224 41.43 5.27916 41.1116 5.27916C40.7754 5.27916 40.5277 5.56224 40.5277 5.89841C40.5277 6.23458 40.7931 6.51767 41.1116 6.51767ZM41.0054 6.25227H40.8462V5.52686H41.1469C41.2 5.52686 41.2708 5.52686 41.3239 5.56224C41.3769 5.59763 41.4123 5.6684 41.4123 5.73917C41.4123 5.82764 41.3593 5.89841 41.2885 5.9161L41.4123 6.23458H41.2354L41.1292 5.95149H41.0054V6.25227ZM41.0054 5.84533H41.0939C41.1292 5.84533 41.1646 5.84533 41.1823 5.82764C41.2 5.80995 41.2177 5.77456 41.2177 5.73917C41.2177 5.72148 41.2 5.68609 41.1823 5.6684C41.1646 5.65071 41.1116 5.65071 41.0939 5.65071H41.0054C41.0231 5.6684 41.0054 5.84533 41.0054 5.84533ZM29.2042 0.448966L28.9919 1.84671C28.5318 1.59901 28.1957 1.51055 27.8241 1.51055C26.851 1.51055 26.1787 2.50135 26.1787 3.8991C26.1787 4.87222 26.6387 5.45609 27.3995 5.45609C27.718 5.45609 28.0718 5.34993 28.5141 5.11992L28.2841 6.58844C27.8064 6.72998 27.4879 6.78306 27.1341 6.78306C25.7363 6.78306 24.8517 5.72148 24.8517 4.02295C24.8517 1.74056 26.0548 0.130493 27.7887 0.130493C28.0187 0.130493 28.2134 0.148185 28.3726 0.201264L28.9211 0.342809C29.0449 0.395888 29.0803 0.395887 29.2042 0.448966ZM24.8694 1.40439C24.834 1.3867 24.7809 1.3867 24.7455 1.3867C24.3209 1.3867 24.0732 1.6167 23.6663 2.23596L23.7901 1.43977H22.6047L21.8085 6.64152H23.1178C23.5955 3.45678 23.7016 2.90829 24.3386 2.90829H24.4271C24.5509 2.28904 24.6925 1.82902 24.9225 1.40439H24.8694ZM17.0845 6.57074C16.7306 6.69459 16.4475 6.74767 16.1467 6.74767C15.4921 6.74767 15.1205 6.34073 15.1205 5.59763C15.1205 5.45608 15.1382 5.29685 15.1559 5.11992L15.2444 4.60682L15.2975 4.19988L15.8636 0.643589H17.1552L16.996 1.40439H17.6683L17.4737 2.66059H16.8368L16.4829 4.87222C16.4652 4.96068 16.4652 5.03145 16.4652 5.08453C16.4652 5.34993 16.6068 5.47378 16.9075 5.47378C17.0668 5.47378 17.1729 5.45608 17.2614 5.4207L17.0845 6.57074ZM11.9358 3.08522C11.9358 3.73986 12.2366 4.19988 12.9266 4.53605C13.4397 4.80144 13.5459 4.87222 13.5459 5.11992C13.5459 5.43839 13.3159 5.59763 12.8028 5.59763C12.4135 5.59763 12.0597 5.54455 11.635 5.38531L11.4581 6.58844L11.5112 6.60613L11.7412 6.65921C11.8296 6.6769 11.9358 6.6946 12.0773 6.71229C12.3781 6.72998 12.6258 6.76537 12.8028 6.76537C14.1651 6.76537 14.8021 6.21688 14.8021 5.03145C14.8021 4.32373 14.5367 3.8991 13.882 3.58063C13.3336 3.31523 13.2805 3.26215 13.2805 3.01445C13.2805 2.73136 13.4928 2.58982 13.9174 2.58982C14.1828 2.58982 14.519 2.62521 14.8551 2.67828L15.0498 1.47516C14.6782 1.40439 14.289 1.369 13.8997 1.369C12.4312 1.33362 11.9358 2.11211 11.9358 3.08522ZM39.59 6.64152H38.3514L38.4045 6.12842C38.0507 6.53536 37.6791 6.71229 37.2014 6.71229C36.246 6.71229 35.6267 5.84533 35.6267 4.55374C35.6267 2.81983 36.5998 1.35131 37.7499 1.35131C38.263 1.35131 38.6345 1.58132 39.0061 2.05903L39.2892 0.236651H40.5808L39.59 6.64152ZM37.6614 5.4207C38.2807 5.4207 38.7053 4.69529 38.7053 3.66909C38.7053 3.01445 38.4576 2.6429 38.0153 2.6429C37.4314 2.6429 37.0068 3.36831 37.0068 4.39451C36.9891 5.06684 37.2191 5.4207 37.6614 5.4207ZM21.2069 6.53536C20.7646 6.6769 20.3223 6.74767 19.8623 6.74767C18.4114 6.74767 17.6506 5.95149 17.6506 4.4122C17.6506 2.62521 18.6238 1.31592 19.933 1.31592C21.0123 1.31592 21.6846 2.05903 21.6846 3.20907C21.6846 3.58063 21.6316 3.96987 21.5254 4.50066H18.9245C18.9068 4.58913 18.9068 4.62451 18.9068 4.6599C18.9068 5.27916 19.2961 5.57994 20.0569 5.57994C20.5169 5.57994 20.9415 5.47378 21.4192 5.24377C21.4016 5.24377 21.2069 6.53536 21.2069 6.53536ZM20.4815 3.42139C20.4992 3.31523 20.4992 3.22677 20.4992 3.156C20.4992 2.73136 20.2692 2.48366 19.88 2.48366C19.473 2.48366 19.1722 2.81983 19.0484 3.42139H20.4815ZM6.69868 6.64152H5.40709L6.15019 1.72286L4.46936 6.64152H3.58471L3.47855 1.75825L2.68236 6.64152H1.46155L2.50544 0.236651H4.38089L4.43397 4.19988L5.69017 0.236651H7.72487L6.69868 6.64152ZM10.0603 4.32373C9.9188 4.30604 9.86572 4.30604 9.75956 4.30604C9.01646 4.30604 8.6449 4.57144 8.6449 5.10223C8.6449 5.4207 8.83953 5.63302 9.12262 5.63302C9.65341 5.61532 10.0427 5.08453 10.0603 4.32373ZM11.0158 6.64152H9.93649L9.95419 6.09303C9.61802 6.53536 9.19339 6.71229 8.59183 6.71229C7.88411 6.71229 7.40639 6.12842 7.40639 5.29685C7.40639 4.02295 8.25566 3.29754 9.68879 3.29754C9.84803 3.29754 10.025 3.31523 10.2196 3.33293C10.255 3.156 10.2727 3.08522 10.2727 2.99676C10.2727 2.66059 10.0427 2.51905 9.44109 2.51905C9.06954 2.51905 8.64491 2.57213 8.36182 2.67828L8.16719 2.73136L8.04334 2.76675L8.22027 1.59901C8.87491 1.40439 9.29955 1.31592 9.77726 1.31592C10.8919 1.31592 11.4935 1.84671 11.4935 2.83752C11.4935 3.10292 11.4758 3.27985 11.3873 3.88141L11.1219 5.73917L11.0688 6.07534L11.0335 6.34074L11.0158 6.53536C11.0335 6.49997 11.0158 6.64152 11.0158 6.64152ZM31.4512 4.32373C31.3273 4.30604 31.2566 4.30604 31.1504 4.30604C30.4073 4.30604 30.0357 4.57144 30.0357 5.10223C30.0357 5.4207 30.2304 5.63302 30.5135 5.63302C31.0442 5.61532 31.4335 5.08453 31.4512 4.32373ZM32.3889 6.64152H31.3096L31.3273 6.09303C30.9912 6.53536 30.5665 6.71229 29.965 6.71229C29.2572 6.71229 28.7795 6.12842 28.7795 5.29685C28.7795 4.02295 29.6288 3.29754 31.0619 3.29754C31.2035 3.29754 31.3981 3.31523 31.5927 3.33293C31.6281 3.156 31.6458 3.08522 31.6458 2.99676C31.6458 2.66059 31.4158 2.51905 30.8142 2.51905C30.4427 2.51905 30.018 2.57213 29.735 2.67828L29.5403 2.73136L29.4165 2.76675L29.5934 1.59901C30.2481 1.40439 30.6727 1.31592 31.1504 1.31592C32.2651 1.31592 32.8666 1.84671 32.8666 2.83752C32.8666 3.10292 32.8489 3.27985 32.7605 3.88141L32.4951 5.72148L32.4597 6.05765L32.4243 6.32304L32.4066 6.49997L32.3889 6.64152ZM36.0337 1.40439C35.9983 1.3867 35.9452 1.3867 35.9098 1.3867C35.4852 1.3867 35.2375 1.6167 34.8305 2.23596L34.9544 1.43977H33.769L32.9728 6.64152H34.2821C34.7598 3.45678 34.8659 2.90829 35.5029 2.90829H35.5913C35.6798 2.3775 35.8567 1.8821 36.0867 1.40439H36.0337Z" fill="#AFAFAF"/>
<path fill-rule="evenodd" clip-rule="evenodd" d="M30.7965 11.684C30.7965 12.8695 30.425 13.5595 29.8588 13.5595C29.4342 13.5772 29.1865 13.0995 29.1865 12.4094C29.1865 11.5779 29.558 10.6401 30.1596 10.6401C30.6373 10.6401 30.7965 11.1532 30.7965 11.684ZM32.0881 11.7017C32.0881 10.3924 31.4335 9.36624 30.2304 9.36624C28.8326 9.36624 27.9126 10.6047 27.9126 12.4271C27.9126 13.7364 28.4611 14.8157 29.7703 14.8157C31.0973 14.8157 32.0881 13.8779 32.0881 11.7017ZM28.3195 8.46389L28.1249 9.86164C27.6826 9.61394 27.3818 9.52547 27.0456 9.52547C26.1433 9.52547 25.5063 10.5163 25.5063 11.914C25.5063 12.8871 25.931 13.471 26.6387 13.471C26.9395 13.471 27.2756 13.3649 27.6826 13.1348L27.4703 14.6034C27.0279 14.7449 26.7271 14.798 26.391 14.798C25.0817 14.798 24.2501 13.7364 24.2501 12.0379C24.2501 9.75548 25.3825 8.14542 26.9925 8.14542C27.2049 8.14542 27.3818 8.16311 27.541 8.21619L28.0364 8.35774C28.178 8.39312 28.2134 8.41081 28.3195 8.46389ZM20.2692 9.40162C20.2338 9.38393 20.1807 9.38393 20.1454 9.38393C19.7384 9.38393 19.5261 9.61394 19.1369 10.2332L19.2607 9.43701H18.1637L17.4206 14.6387H18.6414C19.0838 11.454 19.1899 10.9055 19.7738 10.9055C19.8092 10.9055 19.8092 10.9055 19.8623 10.9232C19.9684 10.304 20.1277 9.84395 20.3223 9.41931L20.2692 9.40162ZM36.1575 14.6034H35.0075L35.0606 14.0903C34.7244 14.4972 34.3705 14.6741 33.9282 14.6741C33.0435 14.6741 32.4597 13.8072 32.4597 12.5156C32.4597 10.7817 33.362 9.31316 34.4413 9.31316C34.919 9.31316 35.2729 9.54317 35.609 10.0386L35.8744 8.21619H37.0776L36.1575 14.6034ZM34.3528 13.3825C34.9367 13.3825 35.3259 12.6571 35.3259 11.6309C35.3259 10.9763 35.0959 10.6224 34.6713 10.6224C34.1228 10.6224 33.7336 11.3479 33.7336 12.374C33.7336 13.0287 33.9459 13.3825 34.3528 13.3825ZM8.85722 14.5857C8.45028 14.7272 8.02565 14.798 7.60102 14.798C6.23866 14.798 5.53094 14.0018 5.53094 12.4625C5.53094 10.6755 6.43328 9.36624 7.6541 9.36624C8.6626 9.36624 9.29955 10.0916 9.29955 11.2594C9.29955 11.6309 9.24647 12.0202 9.14031 12.551H6.73406C6.71637 12.6394 6.71637 12.6748 6.71637 12.7102C6.71637 13.3118 7.08792 13.6126 7.79564 13.6126C8.23797 13.6126 8.62721 13.5064 9.05184 13.2764L8.85722 14.5857ZM8.16719 11.4894C8.16719 11.3832 8.18489 11.2948 8.18489 11.224C8.18489 10.7994 7.97257 10.5517 7.60102 10.5517C7.21177 10.5517 6.94638 10.8878 6.82253 11.4894H8.16719ZM23.3301 14.5857C22.9232 14.7272 22.4985 14.798 22.0739 14.798C20.7115 14.798 20.0038 14.0018 20.0038 12.4625C20.0038 10.6755 20.9062 9.36624 22.127 9.36624C23.1355 9.36624 23.7724 10.0916 23.7724 11.2594C23.7724 11.6309 23.7193 12.0202 23.6132 12.551H21.1892C21.1715 12.6394 21.1715 12.6748 21.1715 12.7102C21.1715 13.3118 21.5431 13.6126 22.2508 13.6126C22.6931 13.6126 23.0824 13.5064 23.507 13.2764L23.3301 14.5857ZM22.6578 11.4894C22.6755 11.3832 22.6755 11.2948 22.6755 11.224C22.6755 10.7994 22.4631 10.5517 22.0916 10.5517C21.7023 10.5517 21.4369 10.8878 21.3131 11.4894H22.6578ZM40.3154 14.5857C39.9084 14.7272 39.4838 14.798 39.0592 14.798C37.6968 14.798 36.9891 14.0018 36.9891 12.4625C36.9891 10.6755 37.8914 9.36624 39.1299 9.36624C40.1384 9.36624 40.7754 10.0916 40.7754 11.2594C40.7754 11.6309 40.7223 12.0202 40.6162 12.551H38.1922C38.1745 12.6394 38.1745 12.6748 38.1745 12.7102C38.1745 13.3118 38.5461 13.6126 39.2538 13.6126C39.6961 13.6126 40.0854 13.5064 40.51 13.2764L40.3154 14.5857ZM39.6253 11.4894C39.6253 11.3832 39.643 11.2948 39.643 11.224C39.643 10.7994 39.4307 10.5517 39.0592 10.5517C38.6699 10.5517 38.4045 10.8878 38.2807 11.4894H39.6253ZM5.24785 9.64932C5.01784 9.49009 4.68167 9.34854 4.23935 9.34854C3.74394 9.34854 3.3547 9.4547 3.3547 9.9678C3.3547 10.8878 5.14169 10.5517 5.14169 12.5333C5.14169 14.338 3.95626 14.8157 2.89468 14.8157C2.41697 14.8157 1.86849 14.6564 1.46155 14.4795L1.76233 13.1525C2.01003 13.3825 2.48774 13.5241 2.91237 13.5241C3.30162 13.5241 3.88549 13.4179 3.88549 12.7456C3.88549 11.7017 2.0985 12.091 2.0985 10.2509C2.0985 8.57005 3.14238 8.07465 4.16858 8.07465C4.73475 8.07465 5.28324 8.16311 5.58402 8.37543L5.24785 9.64932ZM12.4135 14.5857C12.1658 14.7095 11.8296 14.7803 11.3342 14.7803C10.2727 14.7803 9.61802 13.7187 9.61802 12.4271C9.61802 10.7286 10.5734 9.38393 11.9712 9.38393C12.272 9.38393 12.7497 9.50778 13.1212 9.7201L12.8558 10.9586C12.5904 10.7817 12.325 10.6755 12.042 10.6755C11.3873 10.6755 10.9273 11.2771 10.9273 12.3387C10.9273 12.9579 11.2635 13.4533 11.7943 13.4533C12.1127 13.4533 12.3427 13.3825 12.6081 13.2233L12.4135 14.5857ZM16.9783 13.2764C16.9075 13.7187 16.8721 14.1787 16.8191 14.6211H15.6513L15.7398 13.7895H15.7221C15.3505 14.3557 14.979 14.7449 14.3067 14.7449C13.5813 14.7449 13.1743 13.9664 13.1743 12.9579C13.1743 12.6041 13.192 12.4094 13.2628 11.8786L13.5989 9.47239H14.9082L14.5544 11.8963C14.519 12.1617 14.4659 12.4094 14.4659 12.6925C14.4659 12.9933 14.6074 13.3118 14.9613 13.2764C15.4921 13.2764 15.8106 12.6217 15.899 11.8609L16.2706 9.47239H17.5268L16.9783 13.2764ZM41.5185 14.5503H41.3239V13.701H41.0408V13.5064H41.8016V13.701H41.5185V14.5503ZM42.8278 14.5503H42.6332V13.6833L42.4562 14.5503H42.2616L42.0847 13.6833V14.5503H41.89V13.5064H42.1908L42.3501 14.338H42.3678L42.527 13.5064H42.8101C42.8278 13.5064 42.8278 14.5503 42.8278 14.5503Z" fill="#D9D9D9"/>
</g>
<defs>
<clipPath id="clip0_28704_55707">
<rect width="44" height="16" fill="white"/>
</clipPath>
</defs>
</svg>
