<svg viewBox="0 0 22 16" fill="none" xmlns="http://www.w3.org/2000/svg">
<path d="M13.851 3.08667H8.14728V12.9142H13.851V3.08667Z" fill="#C2C2C2"/>
<path d="M8.51019 8C8.50928 7.05354 8.73297 6.11929 9.16432 5.26797C9.59566 4.41666 10.2234 3.67059 10.9999 3.08625C10.0383 2.36154 8.88339 1.91085 7.66726 1.7857C6.45113 1.66054 5.22282 1.86598 4.12271 2.37852C3.02259 2.89106 2.09507 3.69004 1.44616 4.68412C0.797249 5.67819 0.453125 6.82727 0.453125 8C0.453125 9.17273 0.797249 10.3218 1.44616 11.3159C2.09507 12.31 3.02259 13.1089 4.12271 13.6215C5.22282 14.134 6.45113 14.3395 7.66726 14.2143C8.88339 14.0891 10.0383 13.6385 10.9999 12.9137C10.2234 12.3294 9.59567 11.5833 9.16432 10.732C8.73298 9.8807 8.50929 8.94645 8.51019 8V8Z" fill="#A5A5A5"/>
<path d="M21.5469 8C21.5469 9.17272 21.2028 10.3218 20.554 11.3159C19.9051 12.3099 18.9776 13.1089 17.8775 13.6215C16.7774 14.134 15.5491 14.3395 14.333 14.2143C13.1169 14.0892 11.962 13.6385 11.0005 12.9137C11.7763 12.3288 12.4035 11.5826 12.8348 10.7314C13.266 9.88027 13.4901 8.94631 13.4901 8C13.4901 7.05369 13.266 6.11973 12.8348 5.26855C12.4035 4.41737 11.7763 3.67118 11.0005 3.08626C11.962 2.36154 13.1169 1.91084 14.333 1.78569C15.5491 1.66054 16.7774 1.86598 17.8775 2.37853C18.9776 2.89108 19.9051 3.69006 20.554 4.68414C21.2028 5.67822 21.5469 6.82729 21.5469 8V8Z" fill="#D5D5D5"/>
<path d="M20.9212 11.8742V11.673H21.0058V11.632H20.7903V11.673H20.875V11.8742H20.9212ZM21.3396 11.8742V11.6316H21.2735L21.1976 11.7984L21.1216 11.6316H21.0555V11.8742H21.1021V11.6912L21.1734 11.849H21.2217L21.293 11.6908V11.8742H21.3396Z" fill="#D5D5D5"/>
</svg>
