<svg viewBox="0 0 54 32" fill="none" xmlns="http://www.w3.org/2000/svg">
<path d="M32.7956 6.67334H21.3882V26.3283H32.7956V6.67334Z" fill="#FF5F00"/>
<path d="M22.1141 16.5C22.1123 14.6071 22.5597 12.7386 23.4224 11.0359C24.2851 9.33331 25.5405 7.84118 27.0935 6.6725C25.1703 5.22307 22.8605 4.32169 20.4283 4.07139C17.996 3.82109 15.5394 4.23195 13.3392 5.25704C11.1389 6.28213 9.2839 7.88008 7.98607 9.86823C6.68825 11.8564 6 14.1545 6 16.5C6 18.8455 6.68825 21.1436 7.98607 23.1318C9.2839 25.1199 11.1389 26.7179 13.3392 27.7429C15.5394 28.768 17.996 29.1789 20.4283 28.9286C22.8605 28.6783 25.1703 27.7769 27.0935 26.3275C25.5405 25.1588 24.2851 23.6667 23.4224 21.964C22.5597 20.2614 22.1123 18.3929 22.1141 16.5Z" fill="#EB001B"/>
<path d="M48.1876 16.5C48.1877 18.8454 47.4995 21.1436 46.2017 23.1317C44.904 25.1199 43.049 26.7178 40.8488 27.7429C38.6486 28.768 36.192 29.1789 33.7598 28.9286C31.3276 28.6783 29.0179 27.7769 27.0947 26.3275C28.6464 25.1576 29.9008 23.6653 30.7633 21.9629C31.6259 20.2605 32.0741 18.3926 32.0741 16.5C32.0741 14.6074 31.6259 12.7395 30.7633 11.0371C29.9008 9.33474 28.6464 7.84237 27.0947 6.67251C29.0179 5.22308 31.3276 4.32169 33.7598 4.07139C36.192 3.82109 38.6486 4.23197 40.8488 5.25707C43.049 6.28217 44.904 7.88013 46.2017 9.86828C47.4995 11.8564 48.1877 14.1546 48.1876 16.5Z" fill="#F79E1B"/>
<path d="M46.9363 24.2484V23.846H47.1055V23.764H46.6746V23.846H46.8439V24.2484H46.9363ZM47.773 24.2484V23.7632H47.6409L47.489 24.0969L47.337 23.7632H47.2048V24.2484H47.2981V23.8824L47.4406 24.1979H47.5373L47.6798 23.8816V24.2484H47.773Z" fill="#F79E1B"/>
</svg>
