<svg viewBox="0 0 54 16" fill="none" xmlns="http://www.w3.org/2000/svg">
<g clip-path="url(#clip0_28704_55730)">
<g clip-path="url(#clip1_28704_55730)">
<path fill-rule="evenodd" clip-rule="evenodd" d="M52.3633 5.62041C52.3884 5.61683 52.4204 5.61683 52.4665 5.61683C52.5947 5.61683 52.6485 5.67393 52.6485 5.74869C52.6485 5.84138 52.563 5.87697 52.4524 5.87697H52.3633V5.62041ZM52.3633 6.02317H52.4491C52.5448 6.02317 52.6019 6.06235 52.6163 6.15862C52.6339 6.27972 52.6485 6.35807 52.6695 6.39007H52.8656C52.8516 6.36166 52.8336 6.30841 52.816 6.16938C52.8016 6.03752 52.7517 5.96607 52.6734 5.952V5.94483C52.7696 5.91972 52.8444 5.84497 52.8444 5.73821C52.8444 5.64524 52.816 5.58483 52.766 5.54566C52.7054 5.49931 52.6127 5.47421 52.4598 5.47421C52.3241 5.47421 52.2458 5.48855 52.1743 5.49931V6.39007H52.3633V6.02317ZM52.5023 5.28193C52.8408 5.28193 53.1153 5.57076 53.1153 5.9269C53.1153 6.2869 52.8408 6.57214 52.5023 6.56828C52.1636 6.56828 51.8929 6.2869 51.8929 5.9269C51.8929 5.57076 52.1636 5.28193 52.4987 5.28193H52.5023ZM52.5023 5.12166C52.0601 5.12166 51.7007 5.48138 51.7007 5.92331C51.7007 6.37241 52.0601 6.72855 52.5023 6.72855C52.9476 6.72855 53.3004 6.37241 53.3004 5.92331C53.3004 5.48138 52.9476 5.12166 52.5059 5.12166H52.5023ZM52.75 11.232H53.0681V8.664H52.75V11.232ZM51.904 11.232H52.222V9.48138H51.904V11.232ZM52.0593 9.15972C52.1854 9.15972 52.2656 9.06593 52.2656 8.95393C52.2656 8.8411 52.1854 8.75117 52.0626 8.75117C51.9401 8.75117 51.8565 8.8411 51.8565 8.95393C51.8565 9.06593 51.9365 9.15972 52.0563 9.15972H52.0593ZM51.4772 10.9324C51.3867 10.9719 51.2676 11.0152 51.0866 11.0152C50.739 11.0152 50.4789 10.7661 50.4789 10.3606C50.4789 9.99559 50.696 9.69517 51.0976 9.69517C51.2709 9.69517 51.3906 9.73876 51.4659 9.77848L51.539 9.53572C51.4521 9.48883 51.2852 9.44248 51.0976 9.44248C50.5252 9.44248 50.1569 9.83697 50.1569 10.3754C50.1569 10.9145 50.5007 11.2723 51.0287 11.2723C51.264 11.2723 51.448 11.2108 51.5313 11.171L51.4772 10.9324ZM48.2764 11.232H48.5945V10.1763C48.5945 10.1255 48.6019 10.0676 48.6157 10.0279C48.6742 9.85048 48.8367 9.70207 49.0427 9.70207C49.3434 9.70207 49.4483 9.94124 49.4483 10.2237V11.232H49.7663V10.1873C49.7663 9.58648 49.3906 9.44248 49.1476 9.44248C48.859 9.44248 48.6557 9.60497 48.5688 9.76772H48.5616L48.5434 9.48138H48.2615C48.2725 9.62703 48.2764 9.77131 48.2764 9.95531V11.232ZM47.7481 9.48138H47.4295V10.5526C47.4295 10.6143 47.419 10.6717 47.4008 10.7153C47.3429 10.8601 47.1945 11.0083 46.9809 11.0083C46.6951 11.0083 46.5903 10.7804 46.5903 10.4472V9.48138H46.2723V10.5051C46.2723 11.1167 46.6014 11.2723 46.8761 11.2723C47.187 11.2723 47.3757 11.0874 47.4551 10.9468H47.462L47.4803 11.232H47.7622C47.7514 11.0949 47.7481 10.9357 47.7481 10.7553V9.48138ZM45.0174 11.0334C44.7098 11.0334 44.4927 10.7443 44.4927 10.3606C44.4927 10.0279 44.6551 9.68083 45.0278 9.68083C45.4041 9.68083 45.5525 10.053 45.5525 10.3498C45.5525 10.7479 45.3247 11.0334 45.0207 11.0334H45.0174ZM45.0135 11.2723C45.4292 11.2723 45.8816 10.9901 45.8816 10.3393C45.8816 9.8069 45.5415 9.44248 45.0391 9.44248C44.5575 9.44248 44.1707 9.78566 44.1707 10.3716C44.1707 10.925 44.5396 11.2723 45.0099 11.2723H45.0135ZM43.8962 10.9034C43.7691 10.965 43.5738 11.005 43.3785 11.005C42.7887 11.005 42.4455 10.6246 42.4455 10.024C42.4455 9.384 42.8254 9.01848 43.3964 9.01848C43.5989 9.01848 43.7691 9.06207 43.8849 9.12L43.9644 8.86345C43.8811 8.81986 43.6863 8.75448 43.3856 8.75448C42.6295 8.75448 42.1128 9.26786 42.1128 10.0353C42.1128 10.8378 42.6259 11.2723 43.3134 11.2723C43.6102 11.2723 43.8449 11.2146 43.9572 11.1567L43.8962 10.9034ZM39.9277 11.149C40.0507 11.2221 40.2278 11.2723 40.4198 11.2723C40.8287 11.2723 41.0706 11.0552 41.0706 10.7443C41.0706 10.4803 40.9111 10.328 40.611 10.2163C40.3837 10.1291 40.2822 10.064 40.2822 9.91559C40.2822 9.78566 40.3837 9.67697 40.5718 9.67697C40.7346 9.67697 40.8612 9.73876 40.9299 9.77848L41.0058 9.55034C40.9111 9.48883 40.7564 9.44248 40.5785 9.44248C40.2066 9.44248 39.9751 9.67338 39.9751 9.95531C39.9751 10.1652 40.1236 10.3354 40.4414 10.451C40.6728 10.5379 40.7633 10.6207 40.7633 10.7732C40.7633 10.9214 40.6551 11.0334 40.4267 11.0334C40.2681 11.0334 40.1012 10.9686 40.0038 10.9101L39.9277 11.149ZM39.2008 10.4982C39.2008 10.549 39.1969 10.592 39.1865 10.6356C39.1288 10.8709 38.9335 11.0152 38.7197 11.0152C38.3798 11.0152 38.2025 10.7225 38.2025 10.3647C38.2025 9.98152 38.3978 9.69159 38.7271 9.69159C38.9658 9.69159 39.1396 9.85821 39.1865 10.0566C39.1969 10.1004 39.2008 10.1506 39.2008 10.1942V10.4982ZM39.2008 8.664V9.70648H39.1934C39.1178 9.56855 38.9368 9.44248 38.6656 9.44248C38.2422 9.44248 37.8772 9.79669 37.8811 10.3823C37.8811 10.9145 38.2099 11.2723 38.6331 11.2723C38.9183 11.2723 39.1288 11.1241 39.2259 10.9286H39.2331L39.2477 11.232H39.5335C39.5227 11.1131 39.5186 10.9357 39.5186 10.7804V8.664H39.2008ZM36.8455 11.232H37.1641V10.2993C37.1641 10.245 37.1674 10.1942 37.1749 10.1473C37.2187 9.91228 37.3774 9.74207 37.6016 9.74207C37.6452 9.74207 37.678 9.74593 37.7139 9.74952V9.45269C37.6847 9.44524 37.6593 9.44248 37.6273 9.44248C37.4135 9.44248 37.2187 9.59034 37.1387 9.82566H37.1274L37.1139 9.48138H36.835C36.8455 9.64469 36.8494 9.82207 36.8494 10.0279L36.8455 11.232ZM36.0242 10.643C36.0242 10.6756 36.0212 10.7114 36.0107 10.7443C35.9594 10.8927 35.811 11.0372 35.5801 11.0372C35.4204 11.0372 35.2833 10.9432 35.2833 10.7332C35.2833 10.3934 35.6775 10.3319 36.0242 10.3393V10.643ZM36.3351 10.1583C36.3351 9.8069 36.2055 9.44248 35.6665 9.44248C35.446 9.44248 35.2325 9.50372 35.0877 9.59366L35.1608 9.8069C35.2833 9.72386 35.4532 9.67697 35.619 9.67697C35.9782 9.67338 36.0174 9.93793 36.0174 10.0822V10.1183C35.3407 10.115 34.9649 10.3465 34.9649 10.7697C34.9649 11.0223 35.1459 11.2723 35.5001 11.2723C35.7498 11.2723 35.9415 11.149 36.0356 11.0121H36.0469L36.0756 11.232H36.3611C36.3429 11.1131 36.3351 10.965 36.3351 10.813V10.1583ZM34.256 10.4982C34.256 10.549 34.2524 10.592 34.2419 10.6356C34.1837 10.8709 33.9884 11.0152 33.7754 11.0152C33.435 11.0152 33.2576 10.7225 33.2576 10.3647C33.2576 9.98152 33.4529 9.69159 33.782 9.69159C34.0215 9.69159 34.195 9.85821 34.2419 10.0566C34.2524 10.1004 34.256 10.1506 34.256 10.1942V10.4982ZM34.256 8.664V9.70648H34.2485C34.1727 9.56855 33.9914 9.44248 33.7208 9.44248C33.2976 9.44248 32.9318 9.79669 32.9357 10.3823C32.9357 10.9145 33.2648 11.2723 33.6883 11.2723C33.974 11.2723 34.1837 11.1241 34.2811 10.9286H34.2885L34.3029 11.232H34.5881C34.5779 11.1131 34.5743 10.9357 34.5743 10.7804V8.664H34.256ZM31.0546 11.232H31.3732V10.1763C31.3732 10.1255 31.3809 10.0676 31.3947 10.0279C31.4527 9.85048 31.616 9.70207 31.8218 9.70207C32.1222 9.70207 32.227 9.94124 32.227 10.2237V11.232H32.5451V10.1873C32.5451 9.58648 32.1694 9.44248 31.9263 9.44248C31.6372 9.44248 31.4347 9.60497 31.3473 9.76772H31.3409L31.3225 9.48138H31.0403C31.0513 9.62703 31.0546 9.77131 31.0546 9.95531V11.232ZM30.2339 10.643C30.2339 10.6756 30.2309 10.7114 30.2193 10.7443C30.1691 10.8927 30.0207 11.0372 29.7892 11.0372C29.63 11.0372 29.4921 10.9432 29.4921 10.7332C29.4921 10.3934 29.8869 10.3319 30.2339 10.3393V10.643ZM30.5448 10.1583C30.5448 9.8069 30.4149 9.44248 29.8756 9.44248C29.6551 9.44248 29.4416 9.50372 29.2968 9.59366L29.3691 9.8069C29.4921 9.72386 29.6623 9.67697 29.8284 9.67697C30.1865 9.67338 30.2265 9.93793 30.2265 10.0822V10.1183C29.5503 10.115 29.1743 10.3465 29.1743 10.7697C29.1743 11.0223 29.3553 11.2723 29.7098 11.2723C29.9594 11.2723 30.1506 11.149 30.2447 11.0121H30.2551L30.2847 11.232H30.5699C30.5523 11.1131 30.5448 10.965 30.5448 10.813V10.1583ZM28.1862 9.15972V9.48138H27.9153V9.72386H28.1862V10.6792C28.1862 10.885 28.2229 11.0411 28.3098 11.1385C28.3856 11.2221 28.5051 11.2723 28.6535 11.2723C28.7763 11.2723 28.8739 11.2508 28.936 11.2287L28.9214 10.9865C28.8739 11.0011 28.8231 11.0083 28.7365 11.0083C28.5591 11.0083 28.4974 10.885 28.4974 10.6679V9.72386H28.9531V9.48138H28.4974V9.06207L28.1862 9.15972ZM26.2331 11.1131C26.3633 11.1997 26.6198 11.2723 26.8551 11.2723C27.4306 11.2723 27.7051 10.9432 27.7051 10.5669C27.7051 10.2088 27.4987 10.0135 27.0869 9.85048C26.7506 9.72028 26.6019 9.60828 26.6019 9.38069C26.6019 9.21435 26.7288 9.01572 27.0612 9.01572C27.2822 9.01572 27.4449 9.08441 27.5211 9.13076L27.6074 8.87393C27.5026 8.81241 27.3183 8.75448 27.072 8.75448C26.5986 8.75448 26.2838 9.03697 26.2838 9.41628C26.2838 9.75669 26.5296 9.96662 26.9277 10.1114C27.2565 10.2339 27.3865 10.3677 27.3865 10.592C27.3865 10.8414 27.1991 11.0083 26.8769 11.0083C26.6598 11.0083 26.4574 10.9396 26.3164 10.8491L26.2331 11.1131ZM36.616 5.8651L37.2593 7.48166C37.2778 7.51752 37.2849 7.54317 37.2849 7.56138C37.2849 7.58262 37.2742 7.60469 37.2593 7.63697C37.184 7.8 37.0786 7.92276 36.9917 7.99172C36.8974 8.07476 36.7934 8.12579 36.7136 8.14731L36.7934 8.41462C36.8725 8.40028 37.0245 8.34621 37.184 8.21214C37.4005 8.02069 37.5561 7.71283 37.7834 7.11255L38.2615 5.8651H37.9255L37.5776 6.89214C37.5349 7.01876 37.4976 7.15255 37.4659 7.25738H37.459C37.4295 7.15255 37.3865 7.01517 37.3429 6.89903L36.963 5.8651H36.616ZM35.6905 5.5429V5.8651H35.4196V6.10703H35.6905V7.06207C35.6905 7.26841 35.7266 7.42372 35.8138 7.52138C35.8894 7.60469 36.0088 7.65517 36.1572 7.65517C36.28 7.65517 36.3779 7.63338 36.4391 7.61186L36.4248 7.3691C36.3779 7.384 36.3269 7.39117 36.2408 7.39117C36.0629 7.39117 36.0011 7.26841 36.0011 7.05131V6.10703H36.4574V5.8651H36.0011V5.44524L35.6905 5.5429ZM34.7721 7.61545H35.0902V5.8651H34.7721V7.61545ZM34.9277 5.5429C35.054 5.5429 35.1338 5.44883 35.1338 5.33628C35.1338 5.22428 35.054 5.13407 34.931 5.13407C34.808 5.13407 34.7247 5.22428 34.7247 5.33628C34.7247 5.44883 34.8044 5.5429 34.9236 5.5429H34.9277ZM33.5751 7.61517H33.8932V6.68221C33.8932 6.62814 33.8971 6.57738 33.9045 6.53048C33.9481 6.29517 34.1065 6.12497 34.3313 6.12497C34.3743 6.12497 34.4069 6.12883 34.443 6.13241V5.83586C34.4143 5.82841 34.3892 5.82483 34.3564 5.82483C34.1429 5.82483 33.9481 5.97324 33.8681 6.20828H33.8571L33.8427 5.8651H33.5644C33.5751 6.02731 33.5787 6.20497 33.5787 6.41076L33.5751 7.61517ZM33.0471 5.8651H32.7288V6.93517C32.7288 6.99669 32.7178 7.0549 32.6998 7.09793C32.6422 7.24276 32.4932 7.39117 32.2797 7.39117C31.9945 7.39117 31.8891 7.16331 31.8891 6.83034V5.8651H31.571V6.88855C31.571 7.49959 31.9001 7.65517 32.1749 7.65517C32.486 7.65517 32.6742 7.47062 32.7539 7.32993H32.7614L32.779 7.61517H33.0615C33.0507 7.47834 33.0471 7.31862 33.0471 7.13766V5.8651ZM31.1553 7.31476C31.0648 7.35503 30.9456 7.39862 30.7647 7.39862C30.4171 7.39862 30.1569 7.14869 30.1569 6.744C30.1569 6.37821 30.374 6.07834 30.7757 6.07834C30.9492 6.07834 31.0687 6.12166 31.1443 6.1611L31.2165 5.9189C31.1302 5.872 30.9638 5.82483 30.7757 5.82483C30.2038 5.82483 29.835 6.21931 29.835 6.75807C29.835 7.2971 30.1782 7.65517 30.707 7.65517C30.942 7.65517 31.1266 7.59365 31.2099 7.55393L31.1553 7.31476ZM28.334 6.56662C28.3589 6.34593 28.4971 6.0491 28.8229 6.0491C29.1771 6.0491 29.2634 6.36772 29.2598 6.56662H28.334ZM29.5567 6.79779C29.5641 6.76193 29.5677 6.7109 29.5677 6.64634C29.5677 6.32414 29.4193 5.82124 28.848 5.82124C28.3374 5.82124 28.0231 6.23752 28.0231 6.7691C28.0231 7.29352 28.3487 7.65159 28.8841 7.65159C29.1622 7.65159 29.3578 7.59007 29.4703 7.53931L29.4121 7.31476C29.296 7.36221 29.155 7.40193 28.9266 7.40193C28.6091 7.40193 28.3374 7.22483 28.3302 6.79448L29.5567 6.79779ZM26.2331 7.49628C26.3633 7.58262 26.6198 7.65517 26.8551 7.65517C27.4306 7.65517 27.7051 7.32607 27.7051 6.94979C27.7051 6.59172 27.4987 6.39669 27.0869 6.23366C26.7506 6.10345 26.6019 5.99145 26.6019 5.76359C26.6019 5.59697 26.7288 5.39807 27.0612 5.39807C27.2822 5.39807 27.4449 5.46703 27.5211 5.51393L27.6074 5.25683C27.5026 5.19531 27.3183 5.13766 27.072 5.13766C26.5986 5.13766 26.2838 5.42014 26.2838 5.79945C26.2838 6.13986 26.5296 6.34924 26.9277 6.49434C27.2565 6.6171 27.3865 6.7509 27.3865 6.97545C27.3865 7.22483 27.1991 7.39117 26.8769 7.39117C26.6598 7.39117 26.4574 7.32221 26.3164 7.23228L26.2331 7.49628ZM18.3459 11.2861H20.7911V4.91062H18.3459V11.2861ZM18.0905 2.91338C18.0905 3.34262 18.2328 3.67945 18.5172 3.92414C18.8016 4.16772 19.1539 4.29021 19.5724 4.29021C19.9911 4.29021 20.3429 4.16772 20.6273 3.92414C20.9114 3.67945 21.0535 3.34262 21.0535 2.91338C21.0535 2.47503 20.9114 2.13297 20.6273 1.88855C20.3429 1.64414 19.9911 1.52166 19.5724 1.52166C19.1539 1.52166 18.8016 1.64414 18.5172 1.88855C18.2328 2.13297 18.0905 2.47503 18.0905 2.91338ZM17.3495 11.0822L17.3462 9.48469C17.03 9.60193 16.7327 9.69103 16.454 9.75228C16.176 9.81462 15.891 9.84524 15.6 9.84524C15.3169 9.84524 15.0532 9.808 14.808 9.73379C14.5622 9.66041 14.3484 9.5509 14.1652 9.40634C13.9823 9.26152 13.8367 9.07972 13.7282 8.86069C13.6209 8.64221 13.5666 8.38814 13.5666 8.09821C13.5666 7.53821 13.739 7.10648 14.0838 6.80469C14.4298 6.50317 14.8764 6.352 15.4251 6.352C15.7663 6.352 16.0866 6.39669 16.3856 6.48607C16.6852 6.57517 16.9553 6.68772 17.1961 6.82317L17.2 5.11228C16.8924 5.00138 16.8841 4.99035 16.4979 4.90566C16.1136 4.82207 15.6745 4.80883 15.2002 4.80883C14.5854 4.80883 14.0218 4.88772 13.5106 5.04414C12.9991 5.20166 12.5586 5.4251 12.1887 5.71448C11.8187 6.00386 11.5318 6.352 11.3282 6.75807C11.1244 7.16552 11.0226 7.61462 11.0226 8.10786C11.0226 8.60662 11.1183 9.05903 11.3092 9.46648C11.5004 9.87283 11.779 10.2171 12.1448 10.5012C12.5106 10.7846 12.9575 11.0036 13.4855 11.1572C14.0138 11.3109 14.6146 11.3881 15.288 11.3881C15.7622 11.3881 16.1859 11.3528 16.56 11.2814C16.9343 11.2108 16.9652 11.1945 17.3495 11.0822ZM10.5454 7.09131C10.5454 6.35862 10.2414 5.81131 9.63307 5.45103C9.0248 5.09076 8.18783 4.91062 7.12218 4.91062H4.27142V11.2861H6.7048V9.37324H7.08632C7.60301 9.37324 8.07418 9.32607 8.49983 9.23034C8.92549 9.13545 9.28908 8.992 9.59142 8.80055C9.89376 8.60966 10.1282 8.37131 10.2951 8.08441C10.4623 7.79807 10.5454 7.46676 10.5454 7.09131ZM24.6987 10.0681L5.97818 15.9539L0.517212 1.10428L20.1705 0L24.6987 10.0681ZM8.20742 7.1189C8.20742 7.42069 8.10066 7.64221 7.88576 7.784C7.67059 7.92579 7.3608 7.99669 6.95528 7.99669H6.6808V6.28745H6.97928C7.79832 6.28745 8.20742 6.56469 8.20742 7.1189Z" fill="#A5A5A5"/>
</g>
</g>
<defs>
<clipPath id="clip0_28704_55730">
<rect width="54" height="16" fill="white"/>
</clipPath>
<clipPath id="clip1_28704_55730">
<rect width="52.9655" height="16" fill="white" transform="translate(0.517212)"/>
</clipPath>
</defs>
</svg>
