<svg viewBox="0 0 80 24" fill="none" xmlns="http://www.w3.org/2000/svg">
<path fill-rule="evenodd" clip-rule="evenodd" d="M78.3653 8.45498C78.4031 8.44956 78.4515 8.44956 78.5208 8.44956C78.7142 8.44956 78.7951 8.53547 78.7951 8.64795C78.7951 8.78738 78.6662 8.84089 78.4995 8.84089H78.3653V8.45498ZM78.3653 9.06084H78.4946C78.6391 9.06084 78.7248 9.11978 78.7466 9.26462C78.7733 9.4468 78.7951 9.56462 78.8266 9.6128H79.1226C79.1013 9.57004 79.0742 9.48996 79.0475 9.2808C79.0262 9.08244 78.9506 8.97493 78.8328 8.95378V8.94298C78.9777 8.90524 79.0906 8.79276 79.0906 8.63218C79.0906 8.49231 79.0475 8.40142 78.9724 8.34249C78.8808 8.2728 78.7413 8.23502 78.5106 8.23502C78.3062 8.23502 78.1884 8.25662 78.0804 8.2728V9.6128H78.3653V9.06084ZM78.5751 7.94578C79.0848 7.94578 79.4986 8.38027 79.4986 8.916C79.4986 9.45756 79.0848 9.88667 78.5751 9.88084C78.0644 9.88084 77.6564 9.45756 77.6564 8.916C77.6564 8.38027 78.0644 7.94578 78.5693 7.94578H78.5751ZM78.5751 7.70467C77.9084 7.70467 77.3666 8.24582 77.3666 8.91062C77.3666 9.58622 77.9084 10.122 78.5751 10.122C79.2457 10.122 79.7777 9.58622 79.7777 8.91062C79.7777 8.24582 79.2457 7.70467 78.5804 7.70467H78.5751ZM78.9484 16.8967H79.4275V13.0335H78.9484V16.8967ZM77.6728 16.8967H78.1524V14.2632H77.6728V16.8967ZM77.9071 13.7792C78.0973 13.7792 78.2182 13.6382 78.2182 13.4697C78.2182 13.3 78.0973 13.1647 77.9119 13.1647C77.7275 13.1647 77.6017 13.3 77.6017 13.4697C77.6017 13.6382 77.7222 13.7792 77.9026 13.7792H77.9071ZM77.0297 16.446C76.8933 16.5053 76.7137 16.5705 76.4413 16.5705C75.9173 16.5705 75.5253 16.1957 75.5253 15.5857C75.5253 15.0367 75.8524 14.5848 76.4577 14.5848C76.7186 14.5848 76.8991 14.6503 77.0128 14.7101L77.1231 14.3449C76.9919 14.2744 76.7404 14.2046 76.4577 14.2046C75.5951 14.2046 75.0399 14.798 75.0399 15.6081C75.0399 16.419 75.5577 16.9572 76.3537 16.9572C76.7084 16.9572 76.9857 16.8647 77.1115 16.8049L77.0297 16.446ZM72.2053 16.8967H72.6848V15.3085C72.6848 15.2321 72.6959 15.145 72.7168 15.0852C72.8048 14.8184 73.0497 14.5951 73.3604 14.5951C73.8137 14.5951 73.9719 14.9549 73.9719 15.3799V16.8967H74.4511V15.3251C74.4511 14.4212 73.8848 14.2046 73.5186 14.2046C73.0835 14.2046 72.7773 14.4491 72.6462 14.6939H72.6355L72.6079 14.2632H72.1831C72.1995 14.4823 72.2053 14.6993 72.2053 14.9761V16.8967ZM71.4093 14.2632H70.9288V15.8745C70.9288 15.9675 70.9133 16.0538 70.8857 16.1194C70.7986 16.3372 70.5746 16.5601 70.2528 16.5601C69.8222 16.5601 69.6644 16.2173 69.6644 15.716V14.2632H69.1848V15.8032C69.1848 16.7232 69.6808 16.9572 70.0951 16.9572C70.5635 16.9572 70.8479 16.6792 70.9675 16.4676H70.9782L71.0057 16.8967H71.4306C71.4142 16.6904 71.4093 16.4509 71.4093 16.1796V14.2632ZM67.2933 16.5979C66.8297 16.5979 66.5026 16.1629 66.5026 15.5857C66.5026 15.0852 66.7475 14.5632 67.3093 14.5632C67.8764 14.5632 68.1 15.123 68.1 15.5695C68.1 16.1684 67.7564 16.5979 67.2986 16.5979H67.2933ZM67.2875 16.9572C67.9142 16.9572 68.5959 16.5327 68.5959 15.5537C68.5959 14.7528 68.0835 14.2046 67.3262 14.2046C66.6004 14.2046 66.0173 14.7209 66.0173 15.6023C66.0173 16.4348 66.5733 16.9572 67.2822 16.9572H67.2875ZM65.6035 16.4024C65.4119 16.4949 65.1177 16.5551 64.8231 16.5551C63.9342 16.5551 63.4173 15.9828 63.4173 15.0794C63.4173 14.1167 63.9897 13.5668 64.8502 13.5668C65.1555 13.5668 65.4119 13.6324 65.5866 13.7195L65.7062 13.3336C65.5808 13.268 65.2871 13.1696 64.8342 13.1696C63.6946 13.1696 62.9155 13.942 62.9155 15.0964C62.9155 16.3036 63.6888 16.9572 64.7253 16.9572C65.1724 16.9572 65.5262 16.8705 65.6955 16.7834L65.6035 16.4024ZM59.6222 16.7717C59.8075 16.8817 60.0746 16.9572 60.3639 16.9572C60.9799 16.9572 61.3448 16.6306 61.3448 16.1629C61.3448 15.7658 61.1044 15.5368 60.6519 15.3687C60.3097 15.2375 60.1564 15.1396 60.1564 14.9163C60.1564 14.7209 60.3097 14.5574 60.5933 14.5574C60.8382 14.5574 61.0293 14.6503 61.1328 14.7101L61.2471 14.3669C61.1044 14.2744 60.8711 14.2046 60.6031 14.2046C60.0426 14.2046 59.6937 14.552 59.6937 14.9761C59.6937 15.2919 59.9173 15.548 60.3964 15.7218C60.7453 15.8525 60.8817 15.977 60.8817 16.2065C60.8817 16.4294 60.7186 16.5979 60.3742 16.5979C60.1355 16.5979 59.8839 16.5004 59.7368 16.4124L59.6222 16.7717ZM58.5266 15.7928C58.5266 15.8692 58.5208 15.9339 58.5048 15.9995C58.4182 16.3534 58.1239 16.5705 57.8013 16.5705C57.2893 16.5705 57.0217 16.1302 57.0217 15.5919C57.0217 15.0155 57.3164 14.5794 57.8128 14.5794C58.1724 14.5794 58.4342 14.83 58.5048 15.1284C58.5208 15.1944 58.5266 15.2699 58.5266 15.3355V15.7928ZM58.5266 13.0335V14.6018H58.5155C58.4013 14.3943 58.1288 14.2046 57.7199 14.2046C57.0817 14.2046 56.5315 14.7375 56.5377 15.6185C56.5377 16.419 57.0333 16.9572 57.6711 16.9572C58.1008 16.9572 58.4182 16.7344 58.5644 16.4402H58.5751L58.5973 16.8967H59.0279C59.0119 16.7178 59.0057 16.4509 59.0057 16.2173V13.0335H58.5266ZM54.9768 16.8967H55.4568V15.4936C55.4568 15.4118 55.4617 15.3355 55.4733 15.2649C55.5391 14.9113 55.7782 14.6553 56.1164 14.6553C56.1822 14.6553 56.2315 14.6611 56.2857 14.6665V14.22C56.2413 14.2088 56.2031 14.2046 56.1551 14.2046C55.8328 14.2046 55.5391 14.4271 55.4186 14.781H55.4017L55.3813 14.2632H54.9608C54.9768 14.5088 54.9826 14.7756 54.9826 15.0852L54.9768 16.8967ZM53.7391 16.0107C53.7391 16.0596 53.7342 16.1136 53.7186 16.1629C53.6413 16.3862 53.4173 16.6037 53.0693 16.6037C52.8288 16.6037 52.6222 16.4622 52.6222 16.1464C52.6222 15.6351 53.2164 15.5425 53.7391 15.5537V16.0107ZM54.2075 15.2815C54.2075 14.7528 54.0119 14.2046 53.1995 14.2046C52.8675 14.2046 52.5457 14.2968 52.3275 14.432L52.4373 14.7528C52.6222 14.6279 52.8782 14.5574 53.1279 14.5574C53.6693 14.552 53.7284 14.95 53.7284 15.167V15.2213C52.7084 15.2164 52.1422 15.5645 52.1422 16.2011C52.1422 16.5812 52.4151 16.9572 52.9488 16.9572C53.3253 16.9572 53.6142 16.7717 53.7559 16.5659H53.7728L53.8164 16.8967H54.2466C54.2191 16.7178 54.2075 16.4949 54.2075 16.2663V15.2815ZM51.0737 15.7928C51.0737 15.8692 51.0684 15.9339 51.0524 15.9995C50.9648 16.3534 50.6706 16.5705 50.3493 16.5705C49.8364 16.5705 49.5688 16.1302 49.5688 15.5919C49.5688 15.0155 49.8635 14.5794 50.3595 14.5794C50.7204 14.5794 50.9817 14.83 51.0524 15.1284C51.0684 15.1944 51.0737 15.2699 51.0737 15.3355V15.7928ZM51.0737 13.0335V14.6018H51.0626C50.9479 14.3943 50.6751 14.2046 50.2671 14.2046C49.6293 14.2046 49.0782 14.7375 49.0839 15.6185C49.0839 16.419 49.5799 16.9572 50.2182 16.9572C50.6488 16.9572 50.9648 16.7344 51.1115 16.4402H51.1226L51.1444 16.8967H51.5742C51.5591 16.7178 51.5537 16.4509 51.5537 16.2173V13.0335H51.0737ZM46.2484 16.8967H46.7288V15.3085C46.7288 15.2321 46.7404 15.145 46.7613 15.0852C46.8484 14.8184 47.0946 14.5951 47.4048 14.5951C47.8577 14.5951 48.0155 14.9549 48.0155 15.3799V16.8967H48.4951V15.3251C48.4951 14.4212 47.9288 14.2046 47.5626 14.2046C47.1266 14.2046 46.8213 14.4491 46.6897 14.6939H46.6799L46.6524 14.2632H46.2271C46.2435 14.4823 46.2484 14.6993 46.2484 14.9761V16.8967ZM45.0115 16.0107C45.0115 16.0596 45.0071 16.1136 44.9897 16.1629C44.9137 16.3862 44.6902 16.6037 44.3414 16.6037C44.1015 16.6037 43.8935 16.4622 43.8935 16.1464C43.8935 15.6351 44.4885 15.5425 45.0115 15.5537V16.0107ZM45.4804 15.2815C45.4804 14.7528 45.2844 14.2046 44.4715 14.2046C44.1393 14.2046 43.8175 14.2968 43.5992 14.432L43.7081 14.7528C43.8935 14.6279 44.1501 14.5574 44.4004 14.5574C44.9399 14.552 45.0004 14.95 45.0004 15.167V15.2213C43.9813 15.2164 43.4146 15.5645 43.4146 16.2011C43.4146 16.5812 43.6873 16.9572 44.2216 16.9572C44.5979 16.9572 44.8862 16.7717 45.0279 16.5659H45.0435L45.0879 16.8967H45.5182C45.4915 16.7178 45.4804 16.4949 45.4804 16.2663V15.2815ZM41.9252 13.7792V14.2632H41.5169V14.6279H41.9252V16.065C41.9252 16.3746 41.9805 16.6095 42.1115 16.756C42.2259 16.8817 42.4059 16.9572 42.6295 16.9572C42.8146 16.9572 42.9618 16.9249 43.0553 16.8917L43.0333 16.5273C42.9618 16.5493 42.8853 16.5601 42.7547 16.5601C42.4874 16.5601 42.3942 16.3746 42.3942 16.048V14.6279H43.0811V14.2632H42.3942V13.6324L41.9252 13.7792ZM38.9815 16.7178C39.1777 16.8481 39.5644 16.9572 39.9191 16.9572C40.7864 16.9572 41.2001 16.4622 41.2001 15.8961C41.2001 15.3575 40.8891 15.0636 40.2683 14.8184C39.7615 14.6225 39.5374 14.454 39.5374 14.1116C39.5374 13.8614 39.7287 13.5626 40.2297 13.5626C40.5627 13.5626 40.808 13.666 40.9228 13.7357L41.0529 13.3493C40.8949 13.2568 40.6172 13.1696 40.2459 13.1696C39.5324 13.1696 39.058 13.5946 39.058 14.1652C39.058 14.6773 39.4284 14.9931 40.0284 15.211C40.524 15.3952 40.7199 15.5965 40.7199 15.9339C40.7199 16.309 40.4375 16.5601 39.9519 16.5601C39.6247 16.5601 39.3195 16.4568 39.1071 16.3207L38.9815 16.7178ZM54.6306 8.82307L55.6004 11.2549C55.6284 11.3088 55.6391 11.3474 55.6391 11.3748C55.6391 11.4068 55.6226 11.44 55.6004 11.4885C55.4866 11.7338 55.3279 11.9184 55.1968 12.0222C55.0546 12.1471 54.8982 12.2239 54.7777 12.2563L54.8982 12.6584C55.0173 12.6368 55.2466 12.5555 55.4866 12.3538C55.8133 12.0658 56.0475 11.6027 56.3902 10.6996L57.1111 8.82307H56.6044L56.0799 10.368C56.0155 10.5585 55.9595 10.7598 55.9119 10.9175H55.9013C55.8568 10.7598 55.7919 10.5532 55.7262 10.3784L55.1537 8.82307H54.6306ZM53.2359 8.33836V8.82307H52.8275V9.18702H53.2359V10.6237C53.2359 10.9341 53.2902 11.1677 53.4217 11.3147C53.5355 11.44 53.7155 11.5159 53.9395 11.5159C54.1244 11.5159 54.2719 11.4831 54.3644 11.4508L54.3426 11.0856C54.2719 11.108 54.1951 11.1188 54.0653 11.1188C53.7973 11.1188 53.7039 10.9341 53.7039 10.6075V9.18702H54.3915V8.82307H53.7039V8.19147L53.2359 8.33836ZM51.8515 11.4562H52.3311V8.82307H51.8515V11.4562ZM52.0862 8.33836C52.2764 8.33836 52.3968 8.19684 52.3968 8.02751C52.3968 7.85902 52.2764 7.72333 52.0911 7.72333C51.9057 7.72333 51.7799 7.85902 51.7799 8.02751C51.7799 8.19684 51.9004 8.33836 52.0799 8.33836H52.0862ZM50.0475 11.4557H50.5271V10.0523C50.5271 9.97093 50.5328 9.89458 50.5439 9.824C50.6097 9.47004 50.8484 9.214 51.1871 9.214C51.2519 9.214 51.3013 9.21978 51.3555 9.2252V8.77907C51.3124 8.76787 51.2746 8.76249 51.2248 8.76249C50.9031 8.76249 50.6097 8.98573 50.4893 9.33929H50.4724L50.4511 8.82307H50.0315C50.0475 9.06707 50.0528 9.33431 50.0528 9.64391L50.0475 11.4557ZM49.2519 8.82307H48.7719V10.4328C48.7719 10.5253 48.7555 10.6129 48.7284 10.6776C48.6413 10.8955 48.4168 11.1188 48.0951 11.1188C47.6653 11.1188 47.5062 10.776 47.5062 10.2751V8.82307H47.0271V10.3627C47.0271 11.2819 47.5231 11.5159 47.9368 11.5159C48.4062 11.5159 48.6897 11.2383 48.8097 11.0267H48.8208L48.8475 11.4557H49.2733C49.2573 11.2499 49.2519 11.0096 49.2519 10.7374V8.82307ZM46.4004 11.0038C46.2639 11.0644 46.0844 11.13 45.8115 11.13C45.2875 11.13 44.8955 10.754 44.8955 10.1452C44.8955 9.59493 45.2226 9.14387 45.8284 9.14387C46.0897 9.14387 46.2697 9.20898 46.3835 9.26836L46.4924 8.904C46.3626 8.83342 46.1119 8.76249 45.8284 8.76249C44.9662 8.76249 44.4103 9.35591 44.4103 10.1664C44.4103 10.9772 44.9275 11.5159 45.7248 11.5159C46.0791 11.5159 46.3573 11.4234 46.4826 11.3636L46.4004 11.0038ZM42.1481 9.87836C42.1855 9.5464 42.3938 9.09987 42.8849 9.09987C43.4187 9.09987 43.5489 9.57915 43.5435 9.87836H42.1481ZM43.9908 10.2261C44.0021 10.1722 44.0075 10.0954 44.0075 9.99831C44.0075 9.5136 43.7838 8.75707 42.9227 8.75707C42.1531 8.75707 41.6795 9.38329 41.6795 10.183C41.6795 10.9719 42.1701 11.5105 42.9771 11.5105C43.3963 11.5105 43.6911 11.418 43.8607 11.3416L43.773 11.0038C43.5979 11.0752 43.3855 11.135 43.0412 11.135C42.5626 11.135 42.1531 10.8685 42.1423 10.2212L43.9908 10.2261ZM38.9815 11.2769C39.1777 11.4068 39.5644 11.5159 39.9191 11.5159C40.7864 11.5159 41.2001 11.0208 41.2001 10.4548C41.2001 9.91613 40.8891 9.62276 40.2683 9.37747C39.7615 9.1816 39.5374 9.01311 39.5374 8.67036C39.5374 8.41969 39.7287 8.12049 40.2297 8.12049C40.5627 8.12049 40.808 8.22422 40.9228 8.2948L41.0529 7.908C40.8949 7.81547 40.6172 7.72876 40.2459 7.72876C39.5324 7.72876 39.058 8.15369 39.058 8.72431C39.058 9.2364 39.4284 9.55138 40.0284 9.76964C40.524 9.95431 40.7199 10.1556 40.7199 10.4934C40.7199 10.8685 40.4375 11.1188 39.9519 11.1188C39.6247 11.1188 39.3195 11.015 39.1071 10.8797L38.9815 11.2769ZM27.0938 16.978H30.7793V7.3872H27.0938V16.978ZM26.7088 4.38269C26.7088 5.0284 26.9234 5.53511 27.352 5.9032C27.7807 6.26964 28.3116 6.45391 28.9424 6.45391C29.5735 6.45391 30.1037 6.26964 30.5323 5.9032C30.9606 5.53511 31.1747 5.0284 31.1747 4.38269C31.1747 3.72327 30.9606 3.20869 30.5323 2.84101C30.1037 2.47333 29.5735 2.28908 28.9424 2.28908C28.3116 2.28908 27.7807 2.47333 27.352 2.84101C26.9234 3.20869 26.7088 3.72327 26.7088 4.38269ZM25.592 16.6713L25.587 14.2681C25.1105 14.4445 24.6623 14.5785 24.2424 14.6707C23.8233 14.7644 23.3938 14.8105 22.9551 14.8105C22.5285 14.8105 22.1311 14.7545 21.7614 14.6428C21.3909 14.5324 21.0687 14.3677 20.7926 14.1503C20.517 13.9324 20.2974 13.6589 20.134 13.3294C19.9723 13.0008 19.8904 12.6185 19.8904 12.1824C19.8904 11.34 20.1503 10.6905 20.67 10.2365C21.1914 9.78293 21.8645 9.55551 22.6915 9.55551C23.2059 9.55551 23.6886 9.62276 24.1393 9.7572C24.5908 9.89124 24.9979 10.0605 25.3608 10.2643L25.3667 7.69058C24.9031 7.52373 24.8906 7.50711 24.3085 7.37973C23.7293 7.254 23.0674 7.23409 22.3527 7.23409C21.4259 7.23409 20.5764 7.35276 19.806 7.58804C19.0351 7.82502 18.3711 8.16116 17.8135 8.59649C17.256 9.03178 16.8235 9.55551 16.5167 10.1664C16.2095 10.7793 16.056 11.4549 16.056 12.1969C16.056 12.9472 16.2003 13.6278 16.488 14.2407C16.7762 14.852 17.1961 15.3699 17.7474 15.7973C18.2987 16.2236 18.9723 16.553 19.7681 16.7842C20.5643 17.0153 21.4699 17.1316 22.4849 17.1316C23.1996 17.1316 23.8383 17.0784 24.402 16.9709C24.9663 16.8647 25.0128 16.8402 25.592 16.6713ZM15.3367 10.6677C15.3367 9.56547 14.8785 8.74213 13.9617 8.20018C13.0449 7.65818 11.7835 7.3872 10.1773 7.3872H5.88057V16.978H9.54817V14.1004H10.1232C10.902 14.1004 11.6121 14.0295 12.2537 13.8855C12.8952 13.7428 13.4432 13.5269 13.8989 13.2389C14.3547 12.9518 14.7081 12.5932 14.9596 12.1616C15.2116 11.7309 15.3367 11.2325 15.3367 10.6677ZM36.6689 15.1458L8.45301 24L0.222168 1.6612L29.8438 0L36.6689 15.1458ZM11.813 10.7092C11.813 11.1632 11.652 11.4964 11.3282 11.7097C11.0039 11.923 10.5369 12.0297 9.92572 12.0297H9.51204V9.4584H9.9619C11.1963 9.4584 11.813 9.87547 11.813 10.7092Z" fill="white"/>
</svg>
