<svg viewBox="0 0 60 24" fill="none" xmlns="http://www.w3.org/2000/svg">
<path d="M6 24H22.5191V11.8402H6V24ZM11.8436 16.9682L13.401 18.5941L17.0083 14.828L18.1664 16.0371L13.401 21.0122L10.6855 18.1772L11.8436 16.9682ZM10.8719 6.44818C10.8719 4.50261 12.3893 2.91836 14.2662 2.91836C16.1298 2.91836 17.6473 4.50261 17.6473 6.44818V10.1031H20.4426V6.44818C20.4293 2.89056 17.6606 0 14.2662 0C10.8586 0 8.08985 2.89056 8.08985 6.44818V10.1031H10.8852V6.44818H10.8719ZM36.0566 10.784C36.0566 9.03301 35.0715 8.03243 33.5141 7.42096L32.0765 6.7817C30.9318 6.3509 30.1331 6.05906 30.1331 5.32252C30.1331 4.59988 30.7321 4.19687 31.624 4.19687C32.782 4.19687 33.5275 4.55819 34.3527 5.18356L35.7105 3.41865C34.6323 2.36248 33.208 1.7927 31.7704 1.7927C29.2146 1.7927 27.4309 3.41865 27.4309 5.47539C27.4309 7.28199 28.6289 8.33816 29.9601 8.85235L31.4908 9.53329C32.6223 10.0197 33.3278 10.2559 33.3278 11.1314C33.3278 11.7568 32.7953 12.2154 31.6639 12.2154C30.5191 12.2154 29.4143 11.6873 28.5225 10.923L26.9784 12.8408C28.2429 14.022 29.8802 14.6196 31.4775 14.6196C34.406 14.6196 36.0566 12.8269 36.0566 10.784ZM42.5923 7.42096L41.1547 6.7817C40.01 6.3509 39.2113 6.05906 39.2113 5.32252C39.2113 4.59988 39.8103 4.19687 40.7022 4.19687C41.8602 4.19687 42.6057 4.55819 43.4309 5.18356L44.7887 3.41865C43.7105 2.36248 42.2862 1.7927 40.8486 1.7927C38.2928 1.7927 36.5091 3.41865 36.5091 5.47539C36.5091 7.28199 37.7071 8.33816 39.0383 8.85235L40.569 9.53329C41.7005 10.0197 42.406 10.2559 42.406 11.1314C42.406 11.7568 41.8735 12.2154 40.7421 12.2154C39.5973 12.2154 38.4925 11.6873 37.6007 10.923L36.0566 12.8408C37.3211 14.022 38.9584 14.6196 40.5557 14.6196C43.4975 14.6196 45.1481 12.8408 45.1481 10.784C45.1348 9.03301 44.1631 8.03243 42.5923 7.42096Z" fill="white"/>
<path d="M48.822 12.0347V2.01501H46.1597V14.3833H54.0932V12.0347H48.822Z" fill="white"/>
<path d="M29.4942 18.7748L28.7754 18.4551C28.3361 18.2606 27.8569 18.0799 27.8569 17.5657C27.8569 17.0793 28.2562 16.7875 28.8552 16.7875C29.3877 16.7875 29.7737 16.982 30.1198 17.2878L30.4659 16.8431C30.0932 16.454 29.5341 16.176 28.8819 16.176C27.9102 16.176 27.2047 16.7736 27.2047 17.5935C27.2047 18.3717 27.8037 18.7609 28.3095 18.9693L29.0416 19.3028C29.5607 19.5391 29.9601 19.7058 29.9601 20.2756C29.9601 20.7759 29.5474 21.1233 28.8419 21.1233C28.2562 21.1233 27.7238 20.8593 27.3378 20.4563L26.9518 20.9288C27.4176 21.4152 28.0566 21.7209 28.8153 21.7209C29.9468 21.7209 30.6256 21.04 30.6256 20.1922C30.6256 19.4001 30.1198 19.0388 29.4942 18.7748Z" fill="white"/>
<path d="M32.6622 19.1083H34.792V18.5246H32.6622V16.8431H35.178V16.2733H32.01V21.6236H35.2579V21.04H32.6622V19.1083Z" fill="white"/>
<path d="M38.599 21.1233C37.614 21.1233 36.975 20.2756 36.975 18.9276C36.975 17.5935 37.614 16.7597 38.599 16.7597C39.025 16.7597 39.371 16.9542 39.624 17.2461L39.9967 16.8153C39.7038 16.4678 39.2113 16.1621 38.599 16.1621C37.2679 16.1621 36.2962 17.2183 36.2962 18.9415C36.2962 20.6925 37.2679 21.7209 38.5324 21.7209C39.2113 21.7209 39.7171 21.429 40.1165 20.9427L39.7438 20.5257C39.4376 20.9149 39.0782 21.1233 38.599 21.1233ZM43.9235 19.6224C43.9235 20.7342 43.4576 21.1372 42.8319 21.1372C42.2196 21.1372 41.7537 20.7342 41.7537 19.6224V16.2733H41.1015V19.6085C41.1015 21.1372 41.8336 21.7348 42.8319 21.7348C43.8303 21.7348 44.5491 21.1511 44.5491 19.6085V16.2733H43.9101V19.6224H43.9235ZM49.3411 17.7742C49.3411 16.6624 48.5957 16.2733 47.5574 16.2733H45.9601V21.6236H46.6123V19.3584H47.5308L48.7687 21.6236H49.5141L48.2097 19.2889C48.8752 19.1083 49.3411 18.608 49.3411 17.7742ZM47.4509 18.8025H46.599V16.8153H47.4509C48.2496 16.8153 48.6889 17.0654 48.6889 17.7742C48.6889 18.469 48.2496 18.8025 47.4509 18.8025Z" fill="white"/>
<path d="M51.4043 19.1083H53.5341V18.5246H51.4043V16.8431H53.9201V16.2733H50.7388V21.6236H54V21.04H51.4043V19.1083Z" fill="white"/>
<defs>
<clipPath id="clip0_4441_42170">
<rect width="48" height="24" fill="white" transform="translate(6)"/>
</clipPath>
</defs>
</svg>
