<svg viewBox="0 0 38 16" fill="none" xmlns="http://www.w3.org/2000/svg">
<g clip-path="url(#clip0_28704_55712)">
<path d="M15.4524 8.54285L13.597 13.5534L13.3982 12.5339C12.9344 11.2851 11.9303 9.97515 10.763 9.43995L12.4655 15.8777H14.4788L17.4709 8.53265H15.4524V8.54285Z" fill="#A3A3A3"/>
<path d="M17.0478 15.893L18.2354 8.53265H20.1367L18.949 15.893H17.0478Z" fill="#A3A3A3"/>
<path d="M25.8404 8.71614C25.4632 8.56832 24.8719 8.40521 24.1379 8.40521C22.257 8.40521 20.9369 9.40426 20.9267 10.8315C20.9165 11.8917 21.8697 12.4778 22.5884 12.8296C23.3325 13.1915 23.5772 13.4208 23.5772 13.7419C23.5721 14.2364 22.9859 14.4606 22.4405 14.4606C21.6811 14.4606 21.2784 14.3485 20.6514 14.0784L20.4068 13.9611L20.1417 15.6075C20.5852 15.8114 21.4058 15.9898 22.2621 16C24.2551 16 25.5549 15.0111 25.5702 13.4871C25.5804 12.6461 25.0707 12.014 23.9748 11.489C23.3122 11.1475 22.9044 10.9232 22.9095 10.5766C22.9095 10.2708 23.251 9.94456 24.0003 9.94456C24.6221 9.93436 25.0707 10.0771 25.4224 10.23L25.5906 10.3166L25.8404 8.71614Z" fill="#A3A3A3"/>
<path d="M30.7133 8.54285H29.2453C28.7917 8.54285 28.4502 8.67028 28.2463 9.15451L25.4276 15.8981H27.4205C27.4205 15.8981 27.7468 14.9908 27.8232 14.792C28.0424 14.792 29.9793 14.7971 30.2546 14.7971C30.3157 15.0519 30.4839 15.8981 30.4839 15.8981H32.2527L30.7133 8.54285ZM28.3686 13.2832C28.5266 12.8601 29.123 11.224 29.123 11.224C29.1128 11.2443 29.281 10.8009 29.3779 10.5205L29.5053 11.1526C29.5053 11.1526 29.8723 12.9111 29.9487 13.2781C29.6531 13.2832 28.7407 13.2832 28.3686 13.2832Z" fill="#A3A3A3"/>
<path d="M11.8691 8.53772H8.80567L8.78528 8.66515C11.1657 9.27681 12.7407 10.7703 13.3931 12.539L12.7305 9.15448C12.6183 8.69063 12.2819 8.55301 11.8691 8.53772Z" fill="#D7D7D7"/>
<path d="M3.05607 6.75887H1.84804L0.44632 0.458772L1.78687 0.234497L2.74514 5.16345L5.18158 0.30076H6.46607L3.05607 6.75887Z" fill="#A3A3A3"/>
<path d="M9.3613 4.69962H6.47121C6.38966 5.57633 6.79743 5.95862 7.49064 5.95862C8.06662 5.95862 8.57634 5.74453 9.12174 5.39793L9.11664 6.27464C8.58144 6.61105 7.95958 6.82513 7.23069 6.82513C5.97169 6.82513 5.14085 6.10643 5.39061 4.48554C5.61489 3.02265 6.62922 2.13574 7.80157 2.13574C9.15232 2.13574 9.60087 3.15008 9.40718 4.42947C9.39698 4.52122 9.3664 4.63335 9.3613 4.69962ZM7.65885 2.91051C7.2103 2.91051 6.79233 3.26222 6.59864 4.0013H8.38774C8.41833 3.30299 8.19915 2.91051 7.65885 2.91051Z" fill="#A3A3A3"/>
<path d="M11.2421 4.14909L10.8445 6.72826H9.72824L10.4215 2.22746H11.3746V3.12966C11.7518 2.60975 12.2666 2.17139 12.9751 2.13062L12.9802 3.2418C12.2666 3.29277 11.6346 3.66486 11.2421 4.14909Z" fill="#A3A3A3"/>
<path d="M12.9599 6.72826L13.6531 2.22747H14.7694L14.0812 6.72826H12.9599ZM14.3361 1.47308C13.964 1.47308 13.7041 1.21313 13.7652 0.841036C13.8264 0.458748 14.1628 0.188599 14.5349 0.188599C14.8968 0.188599 15.1567 0.458748 15.0956 0.841036C15.0395 1.21313 14.7031 1.47308 14.3361 1.47308Z" fill="#A3A3A3"/>
<path d="M17.8684 0.999033C17.4861 0.999033 17.2568 1.16724 17.1956 1.56991L17.0937 2.23255H17.95V3.14494H16.9509L16.4004 6.72824H15.2893L15.8398 3.13984H15.1873L15.33 2.22745H15.9825L16.0997 1.45268C16.2526 0.453636 16.9458 0.081543 17.8684 0.081543C18.0621 0.081543 18.2099 0.101931 18.3221 0.117223L18.3323 1.02962C18.2201 1.01942 18.057 0.999033 17.8684 0.999033Z" fill="#A3A3A3"/>
<path d="M17.8786 6.72826L18.5718 2.22747H19.6881L19 6.72826H17.8786ZM19.2599 1.47308C18.8878 1.47308 18.6279 1.21313 18.684 0.841036C18.7451 0.458748 19.0815 0.188599 19.4536 0.188599C19.8155 0.188599 20.0755 0.458748 20.0143 0.841036C19.9582 1.21313 19.6218 1.47308 19.2599 1.47308Z" fill="#A3A3A3"/>
<path d="M24.0309 4.69962H21.1408C21.0643 5.57633 21.467 5.95862 22.1602 5.95862C22.7362 5.95862 23.2459 5.74453 23.7913 5.39793L23.7862 6.27464C23.251 6.61105 22.6291 6.82513 21.9002 6.82513C20.6412 6.82513 19.8104 6.10643 20.0602 4.48554C20.2844 3.02265 21.2988 2.13574 22.4711 2.13574C23.8219 2.13574 24.2704 3.15008 24.0767 4.42947C24.0665 4.52122 24.036 4.63335 24.0309 4.69962ZM22.3284 2.91051C21.8799 2.91051 21.4619 3.26222 21.2682 4.0013H23.0573C23.0879 3.30299 22.8687 2.91051 22.3284 2.91051Z" fill="#A3A3A3"/>
<path d="M27.339 6.72826L27.3441 6.10131C26.9669 6.48359 26.4775 6.82001 25.8557 6.82001C24.9127 6.82001 24.2654 6.12169 24.4998 4.60274C24.7598 2.92577 25.7945 2.18159 26.8394 2.18159C27.2676 2.18159 27.604 2.25804 27.8589 2.34979L28.1953 0.178401L29.3421 0L28.3074 6.72826H27.339ZM27.7161 3.27238C27.4562 3.13985 27.2523 3.07869 26.87 3.07869C26.2838 3.07869 25.7792 3.55272 25.6314 4.54157C25.4989 5.41829 25.8047 5.82606 26.2991 5.82606C26.7069 5.82606 27.0637 5.5814 27.4205 5.2093L27.7161 3.27238Z" fill="#A3A3A3"/>
<path d="M31.7276 6.77411C31.1975 6.77411 30.7642 6.68746 30.3666 6.54984L31.1006 1.7687L31.9671 1.63617L31.6511 3.70562C31.906 3.48134 32.2577 3.25197 32.6858 3.25197C33.4045 3.25197 33.8888 3.78717 33.7104 4.93403C33.5167 6.18794 32.7419 6.77411 31.7276 6.77411ZM32.3545 3.99616C32.0742 3.99616 31.7887 4.18475 31.539 4.43961L31.2994 5.98405C31.4676 6.04522 31.5798 6.0758 31.8193 6.0758C32.3545 6.0758 32.7317 5.74958 32.849 4.97481C32.9509 4.32238 32.7317 3.99616 32.3545 3.99616Z" fill="#A3A3A3"/>
<path d="M35.7085 6.91684C35.2753 7.75787 34.8471 8.01783 34.1896 8.01783C34.0418 8.01783 33.9602 8.00254 33.8838 7.98215L33.8787 7.28384C33.9857 7.31442 34.1029 7.33481 34.266 7.33481C34.5107 7.33481 34.7299 7.22267 34.8726 6.97291L34.9847 6.74864L34.266 3.3896L35.1682 3.27747L35.5862 5.70372L36.7127 3.32334H37.5537L35.7085 6.91684Z" fill="#A3A3A3"/>
</g>
<defs>
<clipPath id="clip0_28704_55712">
<rect width="38" height="16" fill="white"/>
</clipPath>
</defs>
</svg>
