<svg viewBox="0 0 35 16" fill="none" xmlns="http://www.w3.org/2000/svg">
<path fill-rule="evenodd" clip-rule="evenodd" d="M18.092 5.98402C18.076 7.53602 19.476 8.40802 20.532 8.92002C21.62 9.44802 21.988 9.79202 21.98 10.264C21.972 10.992 21.116 11.304 20.308 11.32C18.908 11.344 18.092 10.944 17.444 10.64L16.94 13.008C17.588 13.304 18.796 13.568 20.044 13.584C22.98 13.584 24.892 12.136 24.908 9.88802C24.916 7.04002 20.964 6.88002 20.996 5.60802C21.004 5.22402 21.372 4.80802 22.18 4.70402C22.58 4.64802 23.684 4.60802 24.932 5.18402L25.42 2.89602C24.748 2.64802 23.884 2.41602 22.804 2.41602C20.052 2.41602 18.108 3.88802 18.092 5.98402ZM30.14 2.61602C29.604 2.61602 29.156 2.92802 28.948 3.40802L24.756 13.408H27.684L28.268 11.8H31.852L32.188 13.408H34.78L32.524 2.61602H30.14ZM30.548 5.53602L31.396 9.59202H29.076L30.548 5.53602ZM14.54 2.61602L12.228 13.408H15.02L17.332 2.61602H14.54ZM10.412 2.61602L7.5 9.96802L6.324 3.72002C6.188 3.02402 5.644 2.61602 5.036 2.61602H0.284001L0.220001 2.92802C1.196 3.13602 2.3 3.48002 2.972 3.84802C3.38 4.07202 3.5 4.26402 3.636 4.80002L5.86 13.416H8.812L13.34 2.61602H10.412Z" fill="#939393"/>
</svg>
