<svg width="64" height="64" viewBox="0 0 64 64" fill="none" xmlns="http://www.w3.org/2000/svg">
<path d="M26.1596 6L22.9476 25.4717H28.0816L31.2917 6C31.2917 6 26.1596 6 26.1596 6ZM41.6458 13.9317C39.8517 13.0686 38.7518 12.4861 38.7518 11.6033C38.7738 10.8007 39.6819 9.97845 41.7098 9.97845C43.3778 9.93764 44.6038 10.3195 45.5339 10.6994L45.9998 10.902L46.6978 6.82804C45.6837 6.44618 44.0758 6.02543 42.0898 6.02543C37.0198 6.02543 33.4497 8.59332 33.4276 12.266C33.3857 14.9762 35.9835 16.4801 37.9277 17.3823C39.9137 18.3078 40.5898 18.9079 40.5898 19.7301C40.5679 20.9926 38.9839 21.5751 37.5059 21.5751C35.458 21.5751 34.3579 21.2751 32.6879 20.5716L32.0119 20.2716L31.2939 24.5054C32.4999 25.0277 34.7178 25.4873 37.02 25.5108C42.4081 25.5108 45.914 22.9818 45.9581 19.0677C45.9757 16.9205 44.6058 15.276 41.6458 13.9317ZM59.8598 6.06026H55.8877C54.6637 6.06026 53.7337 6.40323 53.2037 7.62681L45.5775 25.4717H50.9656L52.4495 21.6082H58.4777L59.2476 25.4873H63.9998L59.8598 6.06026ZM53.9438 17.7093C54.0478 17.7191 56.0119 11.4025 56.0119 11.4025L57.5759 17.7093C57.5759 17.7093 54.9579 17.7093 53.9438 17.7093ZM18.6576 6L13.6276 19.2292L13.0796 16.6203C12.1496 13.6101 9.23365 10.3389 5.97949 8.71406L10.5855 25.4523H16.0177L24.0898 6.00214H18.6576V6Z" fill="#2394BC"/>
<path d="M11.3881 8.51661C10.9961 7.0319 9.74602 6.03055 8.0482 6.00919H0.0820394L0 6.36946C6.21415 7.86186 11.43 12.454 13.1221 16.7735L11.3881 8.51661Z" fill="#EFC75E"/>
<path d="M19.2494 60.9978V58.9361C19.2494 58.1475 18.769 57.6311 17.9443 57.6311C17.532 57.6311 17.0836 57.7672 16.7754 58.2156C16.5352 57.8393 16.1909 57.6311 15.6745 57.6311C15.3302 57.6311 14.986 57.7352 14.7137 58.1115V57.6991H13.9932V60.9978H14.7137V59.1763C14.7137 58.5919 15.022 58.3156 15.5024 58.3156C15.9828 58.3156 16.2229 58.6239 16.2229 59.1763V60.9978H16.9435V59.1763C16.9435 58.5919 17.2878 58.3156 17.7322 58.3156C18.2125 58.3156 18.4527 58.6239 18.4527 59.1763V60.9978H19.2494ZM29.9379 57.6991H28.769V56.7024H28.0484V57.6991H27.3959V58.3517H28.0484V59.8649C28.0484 60.6215 28.3567 61.0658 29.1813 61.0658C29.4896 61.0658 29.8338 60.9618 30.074 60.8257L29.8659 60.2052C29.6577 60.3413 29.4175 60.3773 29.2454 60.3773C28.9011 60.3773 28.765 60.1691 28.765 59.8289V58.3517H29.9339V57.6991H29.9379ZM36.0548 57.6271C35.6425 57.6271 35.3663 57.8353 35.1941 58.1075V57.6951H34.4735V60.9938H35.1941V59.1363C35.1941 58.5879 35.4343 58.2756 35.8827 58.2756C36.0188 58.2756 36.1909 58.3116 36.331 58.3437L36.5392 57.6551C36.3951 57.6271 36.1909 57.6271 36.0548 57.6271ZM26.8114 57.9714C26.4671 57.7312 25.9868 57.6271 25.4703 57.6271C24.6457 57.6271 24.0972 58.0394 24.0972 58.6919C24.0972 59.2404 24.5096 59.5526 25.2302 59.6527L25.5744 59.6887C25.9507 59.7568 26.1589 59.8609 26.1589 60.033C26.1589 60.2732 25.8827 60.4453 25.4023 60.4453C24.9219 60.4453 24.5416 60.2732 24.3014 60.1011L23.9571 60.6495C24.3334 60.9257 24.8498 61.0618 25.3663 61.0618C26.327 61.0618 26.8795 60.6135 26.8795 59.997C26.8795 59.4125 26.4311 59.1043 25.7466 59.0002L25.4023 58.9642C25.094 58.9281 24.8539 58.8601 24.8539 58.6559C24.8539 58.4157 25.094 58.2796 25.4743 58.2796C25.8867 58.2796 26.299 58.4518 26.5072 58.5558L26.8114 57.9714ZM45.9828 57.6271C45.5704 57.6271 45.2942 57.8353 45.1221 58.1075V57.6951H44.4015V60.9938H45.1221V59.1363C45.1221 58.5879 45.3623 58.2756 45.8106 58.2756C45.9467 58.2756 46.1189 58.3116 46.259 58.3437L46.4671 57.6631C46.327 57.6271 46.1229 57.6271 45.9828 57.6271ZM36.7754 59.3485C36.7754 60.3453 37.4639 61.0658 38.5288 61.0658C39.0092 61.0658 39.3535 60.9618 39.6977 60.6895L39.3535 60.1051C39.0772 60.3132 38.805 60.4133 38.4928 60.4133C37.9083 60.4133 37.496 60.001 37.496 59.3485C37.496 58.728 37.9083 58.3156 38.4928 58.2836C38.801 58.2836 39.0772 58.3877 39.3535 58.5919L39.6977 58.0074C39.3535 57.7312 39.0092 57.6311 38.5288 57.6311C37.4639 57.6271 36.7754 58.3517 36.7754 59.3485ZM43.4407 59.3485V57.6991H42.7201V58.1115C42.48 57.8032 42.1357 57.6311 41.6873 57.6311C40.7586 57.6311 40.038 58.3517 40.038 59.3485C40.038 60.3453 40.7586 61.0658 41.6873 61.0658C42.1677 61.0658 42.512 60.8937 42.7201 60.5855V60.9978H43.4407V59.3485ZM40.7946 59.3485C40.7946 58.764 41.1709 58.2836 41.7914 58.2836C42.3759 58.2836 42.7882 58.732 42.7882 59.3485C42.7882 59.9329 42.3759 60.4133 41.7914 60.4133C41.1749 60.3773 40.7946 59.9289 40.7946 59.3485ZM32.1717 57.6271C31.2109 57.6271 30.5224 58.3156 30.5224 59.3445C30.5224 60.3773 31.2109 61.0618 32.2077 61.0618C32.6881 61.0618 33.1685 60.9257 33.5488 60.6135L33.2045 60.0971C32.9283 60.3052 32.584 60.4413 32.2438 60.4413C31.7954 60.4413 31.3511 60.2332 31.247 59.6527H33.6849C33.6849 59.5486 33.6849 59.4806 33.6849 59.3765C33.7169 58.3156 33.0964 57.6271 32.1717 57.6271ZM32.1717 58.2476C32.6201 58.2476 32.9283 58.5238 32.9964 59.0362H31.279C31.347 58.5919 31.6553 58.2476 32.1717 58.2476ZM50.074 59.3485V56.3941H49.3535V58.1115C49.1133 57.8032 48.769 57.6311 48.3206 57.6311C47.3919 57.6311 46.6713 58.3517 46.6713 59.3485C46.6713 60.3453 47.3919 61.0658 48.3206 61.0658C48.801 61.0658 49.1453 60.8937 49.3535 60.5855V60.9978H50.074V59.3485ZM47.4279 59.3485C47.4279 58.764 47.8042 58.2836 48.4247 58.2836C49.0092 58.2836 49.4215 58.732 49.4215 59.3485C49.4215 59.9329 49.0092 60.4133 48.4247 60.4133C47.8042 60.3773 47.4279 59.9289 47.4279 59.3485ZM23.3046 59.3485V57.6991H22.584V58.1115C22.3438 57.8032 21.9996 57.6311 21.5512 57.6311C20.6225 57.6311 19.9019 58.3517 19.9019 59.3485C19.9019 60.3453 20.6225 61.0658 21.5512 61.0658C22.0316 61.0658 22.3759 60.8937 22.584 60.5855V60.9978H23.3046V59.3485ZM20.6265 59.3485C20.6265 58.764 21.0028 58.2836 21.6233 58.2836C22.2077 58.2836 22.6201 58.732 22.6201 59.3485C22.6201 59.9329 22.2077 60.4133 21.6233 60.4133C21.0028 60.3773 20.6265 59.9289 20.6265 59.3485Z" fill="black"/>
<path d="M37.3977 32.6458H26.573V52.0934H37.3977V32.6458Z" fill="#FF5A00"/>
<path d="M27.2922 42.3699C27.2922 38.4187 29.1497 34.9119 32 32.6461C29.9023 30.9968 27.2562 30 24.3699 30C17.5324 30 12 35.5324 12 42.3699C12 49.2074 17.5324 54.7398 24.3699 54.7398C27.2562 54.7398 29.9023 53.743 32 52.0937C29.1457 49.8599 27.2922 46.3211 27.2922 42.3699Z" fill="#EB001B"/>
<path d="M52 42.3699C52 49.2074 46.4676 54.7398 39.6301 54.7398C36.7438 54.7398 34.0977 53.743 32 52.0937C34.8863 49.8239 36.7078 46.3211 36.7078 42.3699C36.7078 38.4187 34.8503 34.9119 32 32.6461C34.0937 30.9968 36.7398 30 39.6261 30C46.4676 30 52 35.5685 52 42.3699Z" fill="#F79E1B"/>
</svg>
