<svg xmlns="http://www.w3.org/2000/svg" viewBox="0 0 58 32" fill="none">
  <path d="M23.7399 6L20.8317 25.2946H25.4801L28.3864 6H23.7399ZM37.7609 13.8595C36.1365 13.0043 35.1407 12.4271 35.1407 11.5524C35.1606 10.7571 35.9828 9.94226 37.8189 9.94226C39.3291 9.90182 40.439 10.2802 41.2811 10.6567L41.703 10.8574L42.3349 6.82051C41.4168 6.44212 39.961 6.0252 38.1629 6.0252C33.5725 6.0252 30.3403 8.56973 30.3202 12.209C30.2823 14.8945 32.6343 16.3848 34.3946 17.2788C36.1927 18.1959 36.8048 18.7904 36.8048 19.6052C36.7849 20.8562 35.3508 21.4334 34.0126 21.4334C32.1585 21.4334 31.1625 21.1361 29.6505 20.4391L29.0384 20.1418L28.3884 24.3371C29.4803 24.8546 31.4884 25.31 33.5727 25.3333C38.451 25.3333 41.6253 22.8273 41.6652 18.9488C41.6811 16.8212 40.4408 15.1916 37.7609 13.8595ZM54.2517 6.05971H50.6554C49.5472 6.05971 48.7051 6.39956 48.2253 7.61201L41.3206 25.2946H46.1989L47.5425 21.4662H53.0003L53.6974 25.31H57.9999L54.2517 6.05971ZM48.8954 17.6028C48.9895 17.6125 50.7678 11.3533 50.7678 11.3533L52.1838 17.6028C52.1838 17.6028 49.8135 17.6028 48.8954 17.6028ZM16.9477 6L12.3935 19.1089L11.8974 16.5237C11.0553 13.5409 8.41527 10.2995 5.46899 8.68937L9.63926 25.2753H14.5575L21.8659 6.00212H16.9477V6Z" fill="#2394BC"/>
  <path d="M10.4156 8.49413C10.0571 7.02293 8.91372 6.0307 7.36089 6.00952H0.0750333L0 6.36652C5.68347 7.84535 10.4539 12.3957 12.0015 16.6759L10.4156 8.49413Z" fill="#EFC75E"/>
</svg>
