<svg viewBox="0 0 32 24" fill="none" xmlns="http://www.w3.org/2000/svg">
<path d="M25.3729 8.82542C25.7185 9.84528 25.8937 10.912 25.8937 12C25.8937 17.4553 21.4555 21.8935 16 21.8935C10.5446 21.8935 6.10625 17.4553 6.10625 12C6.10625 6.54455 10.5446 2.10645 16 2.10645C17.0881 2.10645 18.1548 2.28159 19.1746 2.6273V0.42561C18.1445 0.143257 17.0807 0 16 0C9.38324 0 4 5.38318 4 12C4 18.6167 9.38324 24 16 24C22.6169 24 28 18.6167 28 12C28 10.9194 27.8568 9.85554 27.5745 8.82542H25.3729Z" fill="white"/>
<path d="M24.7741 3.21793V0.916992H23.1194V3.21793H20.8323V4.87235H23.1194V7.17321H24.7741V4.87235H27.0749V3.21793H24.7741Z" fill="white"/>
<path d="M10.0544 16.9998V15.5578L13.4004 12.1138C14.147 11.3299 14.5204 10.6765 14.5204 10.1539C14.5204 9.77121 14.399 9.46321 14.1564 9.22988C13.923 8.99655 13.6197 8.87988 13.2464 8.87988C12.509 8.87988 11.963 9.26255 11.6084 10.0279L9.98438 9.07588C10.2924 8.40389 10.7357 7.89056 11.3144 7.5359C11.893 7.18124 12.5277 7.00391 13.2184 7.00391C14.105 7.00391 14.8657 7.2839 15.5004 7.8439C16.135 8.39456 16.4524 9.14122 16.4524 10.0839C16.4524 11.1012 15.9157 12.1465 14.8424 13.2198L12.9244 15.1378H16.6064V16.9998H10.0544Z" fill="white"/>
<path d="M19.6388 7.1999H21.3188V16.9998H19.3868V9.24388L17.5388 9.76188L17.0628 8.10989L19.6388 7.1999Z" fill="white"/>
</svg>
